<svg xmlns="http://www.w3.org/2000/svg" viewBox="0 0 503.11 89.53"><defs><style>.cls-1,.cls-3{fill:#fff;}.cls-1{stroke:#fff;stroke-miterlimit:10;stroke-width:5px;}.cls-2{fill:#326de6;}.cls-4{fill:#333;}</style></defs><title>Kubernetes-Logo</title><g id="Layer_2" data-name="Layer 2"><g id="Layer_1-2" data-name="Layer 1"><g id="Layer_2-2" data-name="Layer 2"><g id="Layer_1-2-2" data-name="Layer 1-2"><path class="cls-1" d="M82.3,21.3a6.47,6.47,0,0,0-3.2-3.7L48.6,3a5.59,5.59,0,0,0-2.5-.5,10.55,10.55,0,0,0-2.5.2L13.1,17.4a5.37,5.37,0,0,0-3,3.7L2.6,54a6.31,6.31,0,0,0,1.1,4.8L24.8,84.9A7.28,7.28,0,0,0,29.4,87H63a5,5,0,0,0,4.6-2.1L88.7,58.8A6.83,6.83,0,0,0,89.9,54Z"/><path class="cls-2" d="M82.3,21.3a6.47,6.47,0,0,0-3.2-3.7L48.6,3a5.59,5.59,0,0,0-2.5-.5,10.55,10.55,0,0,0-2.5.2L13.1,17.4a5.37,5.37,0,0,0-3,3.7L2.6,54a6.31,6.31,0,0,0,1.1,4.8L24.8,84.9A7.28,7.28,0,0,0,29.4,87H63a5,5,0,0,0,4.6-2.1L88.7,58.8A6.83,6.83,0,0,0,89.9,54Z"/><path class="cls-3" d="M77.6,52.7h0c-.1,0-.2,0-.2-.1s-.2-.1-.4-.1a4.87,4.87,0,0,0-1.2-.1,1.27,1.27,0,0,1-.6-.1h-.1a20.21,20.21,0,0,1-3.4-.6A1.21,1.21,0,0,1,71,51c.1,0,0,0,0,0h0l-.8-.2a26.08,26.08,0,0,0-.4-8.8,27.09,27.09,0,0,0-3.5-8.2l.6-.6h0v-.1a1.4,1.4,0,0,1,.3-.9,17.91,17.91,0,0,1,2.8-2h0l.6-.3c.4-.2.7-.4,1.1-.6.1-.1.2-.1.3-.2s0-.1,0-.2h0a2,2,0,0,0,.4-2.8,1.91,1.91,0,0,0-1.4-.7,2.39,2.39,0,0,0-1.4.5h0l-.1.1c-.1.1-.2.2-.3.2a6.47,6.47,0,0,0-.8.9c-.1.2-.3.3-.4.4h0a13.15,13.15,0,0,1-2.5,2.2,1.42,1.42,0,0,1-.6.2.6.6,0,0,1-.4-.1h-.1l-.8.5c-.8-.8-1.7-1.6-2.5-2.4a25.62,25.62,0,0,0-13-5.2l-.1-.8h0V22a1.37,1.37,0,0,1-.5-.8,20,20,0,0,1,.2-3.4v-.1c0-.2.1-.4.1-.6.1-.4.1-.8.2-1.2v-.6h0a2,2,0,0,0-1.7-2.1,2,2,0,0,0-1.7.7,2,2,0,0,0-.6,1.4h0v.5a5,5,0,0,0,.2,1.2,1.27,1.27,0,0,1,.1.6v.1a18.84,18.84,0,0,1,.2,3.4,1.37,1.37,0,0,1-.5.8v.2h0l-.1.8c-1.1.1-2.2.3-3.4.5a23.84,23.84,0,0,0-12.3,7l-.6-.4h-.1c-.1,0-.2.1-.4.1a1.42,1.42,0,0,1-.6-.2A18.44,18.44,0,0,1,24,27.6h0c-.1-.2-.3-.3-.4-.4-.3-.3-.5-.6-.8-.9-.1-.1-.2-.1-.3-.2l-.1-.1h0a2.39,2.39,0,0,0-1.4-.5,1.51,1.51,0,0,0-1.4.7A2.15,2.15,0,0,0,20,29h0a.1.1,0,0,1,.1.1s.2.2.3.2a10.91,10.91,0,0,0,1.1.6l.6.3h0a14.2,14.2,0,0,1,2.8,2,1,1,0,0,1,.3.9V33h0l.6.6c-.1.2-.2.3-.3.5A23.75,23.75,0,0,0,22,50.5l-.8.2h0a.1.1,0,0,1-.1.1,1.58,1.58,0,0,1-.7.7,18.57,18.57,0,0,1-3.4.6h0a1.27,1.27,0,0,0-.6.1c-.4,0-.8.1-1.2.1-.1,0-.2.1-.4.1s-.1,0-.2.1h0A2,2,0,0,0,13,54.8h0a1.86,1.86,0,0,0,2,1.4.9.9,0,0,0,.5-.1h0c.1,0,.1,0,.1-.1s.3,0,.4,0c.4-.1.8-.3,1.1-.4a1.42,1.42,0,0,1,.6-.2h.1a17.83,17.83,0,0,1,3.3-.9h.1a1.14,1.14,0,0,1,.8.3.1.1,0,0,1,.1.1h0l.9-.1a24.14,24.14,0,0,0,8.2,11.7,15.86,15.86,0,0,0,2.7,1.8l-.5.7h0a.1.1,0,0,0,.1.1,1.18,1.18,0,0,1,.1,1A16.41,16.41,0,0,1,32,73v.1a1.76,1.76,0,0,1-.4.5c-.2.2-.4.6-.7,1-.1.1-.1.2-.2.3a.1.1,0,0,1-.1.1h0a2.06,2.06,0,0,0,.8,2.7,1.85,1.85,0,0,0,.7.2A2.24,2.24,0,0,0,34,76.7h0a.1.1,0,0,1,.1-.1c0-.1.1-.2.2-.3.1-.4.3-.7.4-1.1l.2-.6h0a16.92,16.92,0,0,1,1.3-3.1,1.56,1.56,0,0,1,.8-.6c.1,0,.1,0,.1-.1h0l.4-.8a23.54,23.54,0,0,0,8.7,1.6,20,20,0,0,0,5.4-.7,29.88,29.88,0,0,0,3.2-.9l.4.7h0c.1,0,.1,0,.1.1a1.56,1.56,0,0,1,.8.6,16.92,16.92,0,0,1,1.3,3.1v.1l.2.6a3.58,3.58,0,0,0,.4,1.1c.1.1.1.2.2.3a.1.1,0,0,0,.1.1h0a2.24,2.24,0,0,0,1.9,1.2,2.35,2.35,0,0,0,.8-.2,1.67,1.67,0,0,0,.9-1.1,2.57,2.57,0,0,0-.1-1.5h0a.1.1,0,0,0-.1-.1c0-.1-.1-.2-.2-.3a3.59,3.59,0,0,0-.7-1,1.76,1.76,0,0,0-.4-.5V73a11.81,11.81,0,0,1-1.6-2.9,1.18,1.18,0,0,1,.1-1A.1.1,0,0,1,59,69h0l-.3-.8A24.72,24.72,0,0,0,69.5,54.6l.8.1h0a.1.1,0,0,0,.1-.1,1.14,1.14,0,0,1,.8-.3h.1a16.81,16.81,0,0,1,3.2.9h.1a1.42,1.42,0,0,0,.6.2,5.36,5.36,0,0,0,1.1.5c.1,0,.2.1.4.1s.1,0,.2.1h0a.9.9,0,0,0,.5.1,2.17,2.17,0,0,0,2-1.4A2.36,2.36,0,0,0,77.6,52.7ZM48.7,49.6,46,50.9l-2.7-1.3-.7-2.9,1.9-2.4h3l1.9,2.4ZM65,43.1a19.14,19.14,0,0,1,.4,6.3l-9.5-2.7h0a1.64,1.64,0,0,1-1.2-2,1.61,1.61,0,0,1,.4-.7l7.5-6.8A20.34,20.34,0,0,1,65,43.1Zm-5.4-9.6-8.2,5.8a1.7,1.7,0,0,1-2.2-.4.91.91,0,0,1-.3-.7l-.6-10.1a18.82,18.82,0,0,1,11.3,5.4ZM41.5,28.4l2-.4L43,38h0a1.67,1.67,0,0,1-1.7,1.6,2.35,2.35,0,0,1-.8-.2l-8.3-5.9A19.86,19.86,0,0,1,41.5,28.4ZM29.3,37.2l7.4,6.6h0a1.61,1.61,0,0,1,.2,2.3,1.13,1.13,0,0,1-.8.5l-9.7,2.8A21,21,0,0,1,29.3,37.2ZM27.6,54.1l9.9-1.7a1.64,1.64,0,0,1,1.7,1.3,1.18,1.18,0,0,1-.1,1h0l-3.8,9.2A19.67,19.67,0,0,1,27.6,54.1ZM50.3,66.5A20.24,20.24,0,0,1,46,67a22.41,22.41,0,0,1-6.3-1l4.9-8.9a1.55,1.55,0,0,1,2-.4,5,5,0,0,1,.8.7h0l4.8,8.7A16.25,16.25,0,0,0,50.3,66.5Zm12.2-8.7a19.09,19.09,0,0,1-6,6l-3.9-9.4a1.63,1.63,0,0,1,.9-1.9,2.92,2.92,0,0,1,.9-.2l10,1.7A15,15,0,0,1,62.5,57.8Z"/><g id="layer1"><g id="text4373"><path id="path2985" class="cls-4" d="M128.1,48.4c1.1-1.2,2.1-2.4,3.3-3.6s2.2-2.5,3.3-3.7,2.1-2.4,3-3.5,1.8-2.1,2.5-2.9H153c-2.6,2.9-5.1,5.8-7.5,8.5s-5.1,5.5-8,8.3a50,50,0,0,1,4.5,4.7c1.5,1.8,3,3.6,4.5,5.6s2.8,3.9,4,5.8,2.2,3.7,3,5.3H141.1c-.8-1.3-1.7-2.6-2.7-4.1s-2.1-3-3.1-4.6a49.43,49.43,0,0,0-3.6-4.4,23.77,23.77,0,0,0-3.6-3.5V73H117.3V18.2l10.8-1.7V48.4"/><path id="path2987" class="cls-4" d="M191.1,71.4a69.43,69.43,0,0,1-16.2,2.1,22.2,22.2,0,0,1-8.1-1.3,13.18,13.18,0,0,1-5.1-3.6,15,15,0,0,1-2.7-5.7,28.91,28.91,0,0,1-.8-7.2V34.6H169V54.5c0,3.5.5,6,1.4,7.5s2.6,2.3,5.1,2.3a21.75,21.75,0,0,0,2.5-.1,14.32,14.32,0,0,0,2.3-.3V34.6h10.8V71.4"/><path id="path2989" class="cls-4" d="M225.7,53.4c0-7-2.6-10.4-7.7-10.4a12.42,12.42,0,0,0-3.3.4,8.49,8.49,0,0,0-2.6,1.1V64.1c.5.1,1.2.2,2,.3a22.62,22.62,0,0,0,2.7.1,7.63,7.63,0,0,0,6.7-3,14.33,14.33,0,0,0,2.2-8.1m11,.4a23.74,23.74,0,0,1-1.4,8.3,16.9,16.9,0,0,1-3.8,6.3,18.13,18.13,0,0,1-6.2,4.1,23.91,23.91,0,0,1-8.4,1.4c-1.3,0-2.7-.1-4.1-.2s-2.8-.3-4.2-.4-2.6-.4-3.9-.7a13.07,13.07,0,0,1-3.3-.9V18.2l10.8-1.7v19a24,24,0,0,1,3.8-1.2,19.92,19.92,0,0,1,4.2-.4,16.34,16.34,0,0,1,7.2,1.5,14.54,14.54,0,0,1,5.2,4,17.11,17.11,0,0,1,3.2,6.3,35.28,35.28,0,0,1,.9,8.1"/><path id="path2991" class="cls-4" d="M243.2,54a24,24,0,0,1,1.5-8.8,18.93,18.93,0,0,1,4.1-6.4,15.8,15.8,0,0,1,5.8-3.8,17.87,17.87,0,0,1,6.8-1.3c5.4,0,9.7,1.7,12.8,5s4.7,8.2,4.7,14.5a16.23,16.23,0,0,1-.1,2.1,14.8,14.8,0,0,0-.1,2H254.2a7.19,7.19,0,0,0,3.1,5.3,12.91,12.91,0,0,0,7.4,2,37.85,37.85,0,0,0,5.8-.5,25.42,25.42,0,0,0,4.7-1.4l1.5,8.8a15.71,15.71,0,0,1-2.3.9,19.42,19.42,0,0,1-3.3.7c-1.2.2-2.4.4-3.8.6s-2.7.2-4.1.2a23,23,0,0,1-9-1.5,17.62,17.62,0,0,1-6.3-4.1,17.48,17.48,0,0,1-3.7-6.3,36.5,36.5,0,0,1-1-8m25.4-4.1a8.57,8.57,0,0,0-.5-2.7,6.32,6.32,0,0,0-1.2-2.3,6.84,6.84,0,0,0-2.1-1.7,7.21,7.21,0,0,0-6.2,0,6.91,6.91,0,0,0-2.2,1.6,7.22,7.22,0,0,0-1.4,2.4,13.1,13.1,0,0,0-.6,2.7h14.2"/><path id="path2993" class="cls-4" d="M310.3,44.2c-1-.2-2.1-.5-3.4-.7a19.92,19.92,0,0,0-4.2-.4,22.86,22.86,0,0,0-2.5.2,15.52,15.52,0,0,0-2.1.4V72.8H287.3V36.6a52.67,52.67,0,0,1,6.8-1.9,32.92,32.92,0,0,1,8.8-.9c.7,0,1.4.1,2.1.1a11.34,11.34,0,0,1,2.5.3c.8.1,1.6.2,2.5.4a8.3,8.3,0,0,1,2.1.6l-1.8,9"/><path id="path2995" class="cls-4" d="M317.9,35.9c2.3-.6,4.7-1.1,7.1-1.5a55.79,55.79,0,0,1,9.1-.7,22,22,0,0,1,8,1.3,11.42,11.42,0,0,1,5.1,3.5,14.16,14.16,0,0,1,2.7,5.5,28.13,28.13,0,0,1,.8,7.1V72.6H340V52.5c0-3.5-.5-5.9-1.4-7.4s-2.6-2.2-5.1-2.2a21.75,21.75,0,0,0-2.5.1,15.15,15.15,0,0,0-2.3.2V72.6H317.9V35.9"/><path id="path2997" class="cls-4" d="M358.9,54a24,24,0,0,1,1.5-8.8,18.93,18.93,0,0,1,4.1-6.4,15.8,15.8,0,0,1,5.8-3.8,17.87,17.87,0,0,1,6.8-1.3c5.4,0,9.7,1.7,12.8,5s4.7,8.2,4.7,14.6a16.23,16.23,0,0,1-.1,2.1,14.8,14.8,0,0,0-.1,2H369.9a7.19,7.19,0,0,0,3.1,5.3,12.91,12.91,0,0,0,7.4,2,37.85,37.85,0,0,0,5.8-.5,22.14,22.14,0,0,0,4.8-1.5l1.5,8.8a15.71,15.71,0,0,1-2.3.9,19.42,19.42,0,0,1-3.3.7c-1.2.2-2.4.4-3.8.6s-2.7.2-4.1.2a23,23,0,0,1-9-1.5,17.62,17.62,0,0,1-6.3-4.1A17.48,17.48,0,0,1,360,62a24.91,24.91,0,0,1-1.1-8m25.3-4.1a8.57,8.57,0,0,0-.5-2.7,6.32,6.32,0,0,0-1.2-2.3,6.84,6.84,0,0,0-2.1-1.7,7.21,7.21,0,0,0-6.2,0,6.52,6.52,0,0,0-2.1,1.6,7.22,7.22,0,0,0-1.4,2.4,13.1,13.1,0,0,0-.6,2.7h14.1"/><path id="path2999" class="cls-4" d="M402.6,25.1l10.8-1.7V34.6h13v9h-13V57a10,10,0,0,0,1.2,5.4c.8,1.3,2.4,2,4.9,2a19.83,19.83,0,0,0,3.5-.3,18.87,18.87,0,0,0,3.4-.9l1.5,8.4a32.21,32.21,0,0,1-4.4,1.4,28.8,28.8,0,0,1-5.9.6,18.09,18.09,0,0,1-7.3-1.2,11.8,11.8,0,0,1-4.6-3.3,14,14,0,0,1-2.5-5.2,25.35,25.35,0,0,1-.6-6.7V25.1"/><path id="path3001" class="cls-4" d="M431.9,54a24,24,0,0,1,1.5-8.8,18.93,18.93,0,0,1,4.1-6.4,15.8,15.8,0,0,1,5.8-3.8,17.87,17.87,0,0,1,6.8-1.3c5.4,0,9.7,1.7,12.8,5s4.7,8.2,4.7,14.6a16.23,16.23,0,0,1-.1,2.1c0,.8-.1,1.4-.1,2H443a7.19,7.19,0,0,0,3.1,5.3,12.91,12.91,0,0,0,7.4,2,37.85,37.85,0,0,0,5.8-.5,19.79,19.79,0,0,0,4.7-1.5l1.5,8.8a15.71,15.71,0,0,1-2.3.9,19.42,19.42,0,0,1-3.3.7c-1.2.2-2.4.4-3.8.6s-2.7.2-4.1.2a23,23,0,0,1-9-1.5,17.62,17.62,0,0,1-6.3-4.1A17.48,17.48,0,0,1,433,62a32.09,32.09,0,0,1-1.1-8m25.3-4.1a8.57,8.57,0,0,0-.5-2.7,6.32,6.32,0,0,0-1.2-2.3,6.84,6.84,0,0,0-2.1-1.7,7.21,7.21,0,0,0-6.2,0,6.91,6.91,0,0,0-2.2,1.6,7.22,7.22,0,0,0-1.4,2.4,13.1,13.1,0,0,0-.6,2.7h14.2"/><path id="path3003" class="cls-4" d="M487,65a10,10,0,0,0,4.2-.6,2.23,2.23,0,0,0,1.2-2.2,2.53,2.53,0,0,0-1.6-2.2,21.61,21.61,0,0,0-4.9-2.2,39.68,39.68,0,0,1-4.6-2,13.63,13.63,0,0,1-3.5-2.4,9.49,9.49,0,0,1-2.2-3.4,12.57,12.57,0,0,1-.8-4.7,10.38,10.38,0,0,1,4-8.5c2.7-2.1,6.3-3.1,10.9-3.1a30.51,30.51,0,0,1,6.7.7,31.81,31.81,0,0,1,5.1,1.3l-1.9,8.5c-1.4-.5-2.7-.8-4.1-1.2a20.4,20.4,0,0,0-4.9-.5c-3.4,0-5.1.9-5.1,2.8a5,5,0,0,0,.2,1.2,2.84,2.84,0,0,0,.9,1,19.41,19.41,0,0,0,1.7,1,17,17,0,0,0,2.9,1.2,37.94,37.94,0,0,1,5.8,2.6,11,11,0,0,1,3.6,2.8,7.75,7.75,0,0,1,1.9,3.3,15.23,15.23,0,0,1,.6,4.2,9.59,9.59,0,0,1-4.3,8.6c-2.8,1.9-6.8,2.9-12,2.9a30.36,30.36,0,0,1-8.5-.9c-1.6-.4-3.1-.9-4.6-1.4l1.8-8.8a36.18,36.18,0,0,0,5.6,1.7c2,.1,3.9.3,5.9.3"/></g></g></g></g></g></g></svg>