<?xml version="1.0" encoding="utf-8"?>
<!-- Generator: Adobe Illustrator 25.1.0, SVG Export Plug-In . SVG Version: 6.00 Build 0)  -->
<svg version="1.1" id="Layer_1" xmlns="http://www.w3.org/2000/svg" xmlns:xlink="http://www.w3.org/1999/xlink" x="0px" y="0px"
	 viewBox="0 0 792 288.4" style="enable-background:new 0 0 792 288.4;" xml:space="preserve">
<style type="text/css">
	.st0{fill:none;}
	.st1{fill:#082C38;}
	.st2{fill:#0074D9;}
	.st3{fill:#F04E5A;}
	.st4{opacity:0.15;fill:#082C38;enable-background:new    ;}
</style>
<g id="Layer_2_1_">
</g>
<g>
	<path class="st0" d="M0,216.3L0,216.3L0,216.3z"/>
	<path class="st0" d="M0,72.1L0,72.1L0,72.1z"/>
	<path class="st0" d="M249.8,216.3L249.8,216.3L249.8,216.3z"/>
	<path d="M124.9,144.2L124.9,144.2L124.9,144.2z"/>
	<path d="M124.9,144.2L124.9,144.2L124.9,144.2z"/>
	<path d="M124.9,144.2L124.9,144.2L124.9,144.2z"/>
</g>
<g>
	<polygon class="st1" points="0,216.3 124.9,288.4 62.4,180.3 	"/>
	<polygon class="st2" points="124.9,0 87.5,21.6 0,72.1 62.4,180.3 124.9,288.4 249.8,216.3 	"/>
</g>
<path class="st3" d="M157.6,109.9"/>
<polyline class="st4" points="219.3,163.4 0,72.1 0,72.1 124.9,0 "/>
<polygon class="st1" points="124.9,0 0,72.1 124.9,144.2 124.9,144.2 249.8,72.1 "/>
<g>
	<path class="st1" d="M310,136.6c2.5,1.2,6.4,2.4,11.6,3.6c5.2,1.4,9.5,2.6,12.8,3.9s6.1,3.3,8.5,6.1s3.6,6.4,3.6,11
		c0,5.7-2.3,10.4-6.7,14.1c-4.5,3.7-10.8,5.6-19,5.6c-8.9,0-17-2-24.2-6c-1.5-1.1-2.3-2.5-2.3-4.4c0-1.4,0.5-2.6,1.5-3.7
		s2.2-1.6,3.7-1.6c0.8,0,1.6,0.2,2.4,0.5c2.8,1.2,5.7,2.2,8.5,2.9s6,1.1,9.6,1.1c9.9,0,14.8-3.2,14.8-9.5c0-2-1.1-3.6-3.4-4.7
		s-6-2.3-11.2-3.6c-5.2-1.2-9.6-2.5-13-3.9s-6.4-3.3-8.8-6.1c-2.4-2.7-3.7-6.3-3.7-10.7c0-6.2,2.3-11.3,6.7-15.2
		c4.5-3.9,10.9-5.9,19.3-5.9c6.8,0,13.3,1.1,19.3,3.3c1.2,0.3,2.2,1,2.9,2c0.7,1,1,2,1,3c0,1.4-0.5,2.6-1.5,3.7s-2.3,1.6-3.8,1.6
		c-0.5,0-1-0.1-1.7-0.3c-5.1-1.6-10.2-2.4-15.2-2.4c-4.8,0-8.6,0.8-11.3,2.6c-2.7,1.7-4.1,4-4.1,6.7
		C306.3,133.4,307.6,135.3,310,136.6z"/>
	<path class="st1" d="M398.3,170.5c1,1,1.5,2.1,1.5,3.4c0,2-1,3.6-3,4.7c-3.5,1.6-7.2,2.4-11,2.4c-13,0-19.4-5.9-19.4-17.6v-41.3
		h-9.5c-0.7,0-1.3-0.2-1.8-0.7s-0.7-1.1-0.7-1.8c0-0.9,0.4-1.6,1.2-2.3l18.1-17.8c0.8-0.8,1.6-1.2,2.3-1.2c0.7,0,1.3,0.3,1.8,0.8
		s0.7,1.2,0.7,1.9v10.7h15c1.5,0,2.8,0.5,3.7,1.5c1,1,1.5,2.2,1.5,3.7c0,1.4-0.5,2.6-1.5,3.7c-1,1-2.2,1.5-3.7,1.5h-15v40.2
		c0,3.4,0.8,5.7,2.5,6.6c1.6,1,3.7,1.4,6.2,1.4c1.8,0,3.6-0.3,5.4-0.8c0.3-0.1,0.7-0.2,1.1-0.3s0.9-0.1,1.5-0.1
		C396.2,169.1,397.3,169.6,398.3,170.5z"/>
	<path class="st1" d="M468.7,166.4c1.1,1,1.6,2.2,1.6,3.7c0,2-1.2,3.6-3.5,5c-3.5,2-6.9,3.4-10.3,4.4s-7.7,1.5-13.1,1.5
		c-10.8,0-19.3-3.1-25.4-9.2c-6.1-6.2-9.1-14.9-9.1-26c0-6.3,1.1-12.1,3.5-17.5c2.3-5.4,5.9-9.6,10.7-12.9c4.8-3.3,10.7-5,17.8-5
		c6.6,0,12.3,1.5,17.1,4.6c4.8,3.1,8.5,7.2,10.9,12.3c2.5,5.1,3.7,10.7,3.7,16.7c0,1.7-0.6,3.1-1.7,4.3s-2.6,1.7-4.5,1.7h-45.2
		c0.7,6.2,3,11,6.9,14.5s9.4,5.2,16.4,5.2c3.7,0,7-0.3,9.8-1.1s5.5-1.7,8.2-3c0.7-0.3,1.5-0.5,2.4-0.5
		C466.4,165,467.6,165.5,468.7,166.4z M431.9,122.6c-2.9,1.4-5.4,3.6-7.3,6.5c-2,2.9-3,6.6-3.3,10.9h39.3c-0.3-4.3-1.4-8-3.4-10.9
		s-4.5-5.1-7.4-6.5s-5.9-2.1-8.9-2.1C437.8,120.6,434.8,121.3,431.9,122.6z"/>
	<path class="st1" d="M544.6,166.4c1.1,1,1.6,2.2,1.6,3.7c0,2-1.2,3.6-3.5,5c-3.5,2-6.9,3.4-10.3,4.4c-3.4,1-7.7,1.5-13.1,1.5
		c-10.8,0-19.3-3.1-25.4-9.2c-6.1-6.2-9.1-14.9-9.1-26c0-6.3,1.1-12.1,3.5-17.5c2.3-5.4,5.9-9.6,10.7-12.9c4.8-3.3,10.7-5,17.8-5
		c6.6,0,12.3,1.5,17.1,4.6s8.5,7.2,10.9,12.3s3.7,10.7,3.7,16.7c0,1.7-0.6,3.1-1.7,4.3c-1.1,1.2-2.6,1.7-4.5,1.7h-45.2
		c0.7,6.2,3,11,6.9,14.5s9.4,5.2,16.4,5.2c3.7,0,7-0.3,9.8-1.1s5.5-1.7,8.2-3c0.7-0.3,1.5-0.5,2.4-0.5
		C542.3,165,543.6,165.5,544.6,166.4z M507.8,122.6c-2.9,1.4-5.4,3.6-7.3,6.5c-2,2.9-3,6.6-3.3,10.9h39.3c-0.3-4.3-1.4-8-3.4-10.9
		s-4.5-5.1-7.4-6.5s-5.9-2.1-8.9-2.1C513.7,120.6,510.8,121.3,507.8,122.6z"/>
	<path class="st1" d="M576.3,83.4c1.1,1.2,1.7,2.6,1.7,4.4v86.5c0,1.7-0.6,3.1-1.8,4.3c-1.2,1.1-2.6,1.7-4.3,1.7s-3.1-0.6-4.3-1.7
		s-1.7-2.6-1.7-4.3V87.8c0-1.7,0.6-3.2,1.7-4.3c1.1-1.2,2.6-1.8,4.3-1.8C573.7,81.7,575.2,82.2,576.3,83.4z"/>
	<path class="st1" d="M636.7,170.5c1,1,1.5,2.1,1.5,3.4c0,2-1,3.6-3,4.7c-3.5,1.6-7.2,2.4-11,2.4c-13,0-19.4-5.9-19.4-17.6v-41.3
		h-9.5c-0.7,0-1.3-0.2-1.8-0.7s-0.7-1.1-0.7-1.8c0-0.9,0.4-1.6,1.2-2.3l18.1-17.8c0.8-0.8,1.6-1.2,2.3-1.2s1.3,0.3,1.8,0.8
		s0.7,1.2,0.7,1.9v10.7h15c1.5,0,2.8,0.5,3.7,1.5c1,1,1.5,2.2,1.5,3.7c0,1.4-0.5,2.6-1.5,3.7c-1,1-2.2,1.5-3.7,1.5h-15v40.2
		c0,3.4,0.8,5.7,2.5,6.6c1.6,1,3.7,1.4,6.2,1.4c1.8,0,3.6-0.3,5.4-0.8c0.3-0.1,0.7-0.2,1.1-0.3s0.9-0.1,1.5-0.1
		C634.6,169.1,635.7,169.6,636.7,170.5z"/>
	<path class="st1" d="M699.2,114.8c5.1,2.9,9.1,7.1,12,12.5c2.8,5.4,4.3,11.6,4.3,18.5s-1.4,13.1-4.3,18.5c-2.8,5.4-6.8,9.5-12,12.5
		c-5.1,2.9-11.1,4.4-17.9,4.4c-6.8,0-12.8-1.5-18-4.4c-5.1-2.9-9.1-7.1-11.9-12.5c-2.8-5.4-4.2-11.6-4.2-18.5s1.4-13.1,4.2-18.5
		s6.8-9.5,11.9-12.5c5.1-2.9,11.2-4.4,18-4.4S694.1,111.8,699.2,114.8z M691.8,167.4c3.3-1.7,6.1-4.3,8.3-8s3.3-8.3,3.3-13.9
		c0-5.5-1.1-10.1-3.3-13.7c-2.2-3.7-5-6.3-8.3-7.9s-6.8-2.5-10.5-2.5s-7.3,0.8-10.6,2.5c-3.3,1.6-6.1,4.3-8.2,7.9
		c-2.1,3.7-3.2,8.2-3.2,13.7c0,5.6,1.1,10.2,3.2,13.9s4.8,6.3,8.2,8c3.3,1.7,6.9,2.5,10.6,2.5C685,169.9,688.5,169.1,691.8,167.4z"
		/>
	<path class="st1" d="M788.1,166.4c1.1,1,1.6,2.2,1.6,3.7c0,2-1.2,3.6-3.5,5c-3.5,2-6.9,3.4-10.3,4.4c-3.4,1-7.7,1.5-13.1,1.5
		c-10.8,0-19.3-3.1-25.4-9.2c-6.1-6.2-9.1-14.9-9.1-26c0-6.3,1.1-12.1,3.5-17.5c2.3-5.4,5.9-9.6,10.7-12.9s10.7-5,17.8-5
		c6.6,0,12.3,1.5,17.1,4.6s8.5,7.2,10.9,12.3c2.5,5.1,3.7,10.7,3.7,16.7c0,1.7-0.6,3.1-1.7,4.3c-1.1,1.2-2.6,1.7-4.5,1.7h-45.2
		c0.7,6.2,3,11,6.9,14.5s9.4,5.2,16.4,5.2c3.7,0,7-0.3,9.8-1.1s5.5-1.7,8.2-3c0.7-0.3,1.5-0.5,2.4-0.5
		C785.8,165,787,165.5,788.1,166.4z M751.3,122.6c-2.9,1.4-5.4,3.6-7.3,6.5c-2,2.9-3,6.6-3.3,10.9H780c-0.3-4.3-1.4-8-3.4-10.9
		s-4.5-5.1-7.4-6.5s-5.9-2.1-8.9-2.1C757.2,120.6,754.2,121.3,751.3,122.6z"/>
</g>
<g id="Layer_1_copy">
</g>
</svg>
