<svg class="springlogo" height="47.24" viewBox="0 0 183.82 47.24" width="183.82" xmlns="http://www.w3.org/2000/svg">
<defs><style>.springlogo .a {fill: #6db33f;}</style></defs>
<path class="a" d="M60.55,32.85a2,2,0,0,1-1-1.82,2.09,2.09,0,0,1,2.13-2.12,2.26,2.26,0,0,1,1.13.3,12.12,12.12,0,0,0,6.59,2.21c2.26,0,3.56-1,3.56-2.48v-.08c0-1.78-2.43-2.39-5.12-3.21-3.38-1-7.16-2.34-7.16-6.73v-.09c0-4.34,3.6-7,8.16-7A15.74,15.74,0,0,1,76,13.71a2.24,2.24,0,0,1,1.26,2,2.11,2.11,0,0,1-2.17,2.13,2.08,2.08,0,0,1-1-.26A12.48,12.48,0,0,0,68.71,16c-2,0-3.21,1-3.21,2.26v.09c0,1.69,2.47,2.38,5.16,3.25,3.34,1,7.12,2.56,7.12,6.68v.09c0,4.82-3.74,7.2-8.51,7.2a15.69,15.69,0,0,1-8.72-2.73"></path>
<path class="a" d="M79.76,14.49a2.59,2.59,0,0,1,2.61-2.64A2.63,2.63,0,0,1,85,14.49v1.57a9.15,9.15,0,0,1,7.81-4.3c5.38,0,10.63,4.25,10.63,11.89v.09c0,7.59-5.21,11.89-10.63,11.89a9.34,9.34,0,0,1-7.81-4v8.12a2.63,2.63,0,0,1-5.26,0Zm18.36,9.25v-.09c0-4.42-3-7.33-6.55-7.33s-6.68,2.95-6.68,7.33v.09c0,4.38,3.12,7.33,6.68,7.33s6.55-2.82,6.55-7.33"></path>
<path class="a" d="M105.45,14.5a2.59,2.59,0,0,1,2.6-2.65,2.63,2.63,0,0,1,2.65,2.65v1.26c.26-2,3.47-3.91,5.77-3.91a2.43,2.43,0,0,1,2.6,2.6A2.47,2.47,0,0,1,117,17c-3.73.65-6.29,3.92-6.29,8.43V33a2.62,2.62,0,0,1-2.65,2.61,2.58,2.58,0,0,1-2.6-2.61Z"></path>
<path class="a" d="M121.06,14.51a2.59,2.59,0,0,1,2.6-2.65,2.63,2.63,0,0,1,2.65,2.65V33a2.63,2.63,0,0,1-5.25,0Z"></path>
<path class="a" d="M129,14.52a2.59,2.59,0,0,1,2.6-2.65,2.63,2.63,0,0,1,2.65,2.65v1.07a8.14,8.14,0,0,1,7.16-3.73c5.16,0,8.16,3.47,8.16,8.76V33a2.56,2.56,0,0,1-2.61,2.6,2.6,2.6,0,0,1-2.65-2.6V22.23c0-3.56-1.77-5.6-4.9-5.6s-5.16,2.13-5.16,5.69V33A2.63,2.63,0,0,1,129,33Z"></path>
<path class="a" d="M172.6,11.8A2.64,2.64,0,0,0,170,14.45V16a9.16,9.16,0,0,0-7.8-4.29c-5.39,0-10.64,4.25-10.64,11.89v.08c0,7.6,5.21,11.89,10.64,11.89a9.36,9.36,0,0,0,7.78-4c-.26,4.13-2.79,6.3-7.22,6.3a14.07,14.07,0,0,1-7-1.82,2.05,2.05,0,0,0-1-.21A2.21,2.21,0,0,0,152.51,38,2.16,2.16,0,0,0,154,40.1a19.84,19.84,0,0,0,8.85,2c4.12,0,7.34-1,9.42-3.09,1.9-1.91,3-4.77,3-8.63v-16a2.6,2.6,0,0,0-2.61-2.65M163.4,31c-3.6,0-6.55-2.82-6.55-7.34v-.08c0-4.43,3-7.34,6.55-7.34s6.69,2.95,6.69,7.34v.08c0,4.39-3.13,7.34-6.69,7.34"></path>
<path class="a" d="M126.33,5.54a2.65,2.65,0,1,1-2.65-2.65,2.64,2.64,0,0,1,2.65,2.65"></path>
<path class="a" d="M43,2.69a21.84,21.84,0,0,1-2.51,4.46,23.6,23.6,0,1,0-33,33.76l.52.46a2,2,0,1,1,2.83-.29,2,2,0,0,1-2.83.29l.35.32A23.59,23.59,0,0,0,47.16,25.32C47.81,19.33,46,11.73,43,2.69ZM42.93,34c-5.82,7.76-18.25,5.14-26.23,5.52a27.59,27.59,0,0,0-2.83.31s.54-.23,1.22-.47c5.6-1.93,8.25-2.32,11.65-4.07C33.13,32,39.5,24.89,40.79,17.48,38.36,24.61,31,30.74,24.22,33.23a113.24,113.24,0,0,1-12.95,3.36,2.79,2.79,0,0,1-.34-.18c-5.67-2.76-5.84-15,4.46-19,4.52-1.74,8.84-.79,13.72-1.95,5.21-1.24,11.24-5.14,13.7-10.24C45.55,13.37,48.85,26.12,42.93,34Z"></path>
<path class="a" d="M181.13,17.3a2.69,2.69,0,1,1,2.69-2.69A2.68,2.68,0,0,1,181.13,17.3Zm0-5a2.29,2.29,0,1,0,2.28,2.28A2.27,2.27,0,0,0,181.13,12.33Zm.73,3.83-.8-1.22h-.53v1.22h-.43V13.07h1.26a1,1,0,0,1,1,.94.91.91,0,0,1-.79.92l.83,1.23Zm-.5-2.7h-.83v1.09h.83a.55.55,0,1,0,0-1.09Z"></path>
</svg>