<?xml version="1.0" standalone="no"?>
<!DOCTYPE svg PUBLIC "-//W3C//DTD SVG 20010904//EN"
 "http://www.w3.org/TR/2001/REC-SVG-20010904/DTD/svg10.dtd">
<svg version="1.0" xmlns="http://www.w3.org/2000/svg"
 width="802.000000pt" height="802.000000pt" viewBox="0 0 802.000000 802.000000"
 preserveAspectRatio="xMidYMid meet">
<metadata>
Created by potrace 1.14, written by Peter Selinger 2001-2017
</metadata>
<g transform="translate(0.000000,802.000000) scale(0.100000,-0.100000)"
fill="#000000" stroke="none">
<path d="M3638 8015 c-2 -1 -38 -5 -81 -8 -43 -4 -81 -9 -86 -11 -4 -3 -31 -7
-61 -10 -57 -6 -137 -21 -210 -39 -25 -6 -48 -10 -53 -9 -4 1 -42 -7 -85 -19
-42 -11 -86 -22 -96 -24 -10 -3 -33 -9 -51 -15 -18 -6 -43 -13 -56 -15 -13 -3
-33 -9 -44 -14 -11 -5 -45 -17 -75 -26 -30 -9 -64 -20 -75 -25 -11 -4 -65 -25
-120 -45 -55 -21 -104 -42 -110 -47 -5 -4 -17 -8 -26 -8 -9 0 -22 -7 -29 -15
-7 -8 -20 -15 -29 -15 -19 0 -225 -102 -291 -145 -25 -16 -45 -27 -45 -25 0 4
-18 -7 -82 -47 -16 -10 -43 -26 -62 -36 -18 -10 -38 -22 -45 -28 -34 -28 -168
-119 -176 -119 -4 0 -10 -3 -12 -7 -2 -5 -30 -28 -63 -53 -33 -24 -73 -57 -89
-72 -17 -16 -33 -28 -36 -28 -4 0 -18 -10 -32 -22 -13 -13 -47 -43 -74 -66
-115 -102 -292 -284 -380 -392 -16 -19 -36 -42 -44 -50 -15 -15 -80 -97 -112
-141 -9 -13 -44 -61 -77 -107 -34 -45 -61 -85 -61 -87 0 -3 -8 -18 -18 -33
-55 -81 -94 -145 -130 -214 -22 -42 -51 -93 -64 -115 -26 -42 -36 -62 -98
-203 -23 -52 -48 -108 -56 -125 -18 -40 -84 -215 -89 -239 -2 -10 -9 -24 -16
-32 -6 -8 -9 -14 -6 -14 4 0 -1 -19 -9 -42 -9 -24 -17 -52 -19 -63 -2 -11 -11
-45 -20 -75 -17 -57 -21 -73 -50 -200 -23 -102 -24 -108 -31 -154 -3 -22 -7
-43 -9 -46 -2 -3 -6 -32 -9 -64 -4 -32 -9 -62 -11 -67 -13 -21 -19 -188 -19
-514 1 -411 5 -527 18 -537 5 -3 11 -37 13 -75 2 -37 8 -80 14 -95 6 -15 12
-47 13 -72 0 -24 4 -42 8 -40 7 5 24 -92 20 -120 -1 -10 4 -24 13 -30 8 -6 13
-20 11 -31 -2 -11 3 -30 11 -43 7 -12 11 -27 8 -32 -3 -5 3 -26 13 -47 11 -21
18 -48 16 -60 -2 -13 1 -23 6 -23 6 0 10 -11 10 -25 0 -14 6 -36 13 -48 8 -12
13 -29 13 -37 -1 -8 4 -21 11 -28 7 -7 17 -32 23 -55 6 -23 16 -53 22 -67 13
-29 15 -35 17 -56 0 -8 5 -12 11 -9 8 5 12 -13 9 -41 0 -3 7 -11 16 -18 9 -6
16 -23 17 -36 1 -14 8 -33 16 -42 8 -9 11 -21 8 -26 -3 -5 3 -17 14 -27 11
-10 18 -26 15 -35 -3 -8 4 -33 15 -55 11 -22 20 -44 20 -50 1 -5 12 -23 26
-40 16 -18 24 -23 20 -12 -3 11 -2 16 4 12 6 -3 7 -17 4 -31 -5 -18 -3 -24 7
-22 9 2 13 -5 12 -17 -2 -22 36 -89 45 -80 3 3 -4 19 -16 35 -24 32 -27 40
-13 40 5 0 11 -8 14 -17 8 -24 40 -77 50 -81 4 -2 7 -8 7 -14 0 -6 -9 -3 -20
7 -28 25 -25 8 5 -31 14 -18 25 -36 25 -40 0 -4 11 -22 25 -40 14 -18 25 -36
25 -39 0 -7 60 -97 70 -105 4 -3 10 -13 13 -24 4 -10 13 -16 22 -12 9 3 22 -7
35 -27 l22 -32 -26 30 c-17 19 -26 25 -26 15 0 -8 10 -26 23 -40 12 -14 33
-41 47 -60 13 -19 32 -44 41 -55 10 -11 54 -63 97 -115 124 -149 374 -394 522
-511 36 -28 75 -59 88 -70 12 -10 25 -19 28 -19 8 0 119 -83 122 -92 2 -4 10
-8 18 -8 8 0 14 -4 14 -10 0 -5 4 -10 10 -10 5 0 35 -17 67 -38 70 -45 80 -52
163 -98 36 -20 81 -47 100 -59 61 -38 333 -165 354 -165 7 0 19 -7 26 -15 7
-8 15 -13 19 -10 4 2 19 -2 33 -9 14 -8 50 -21 79 -31 30 -10 58 -21 64 -26 5
-5 15 -9 21 -9 7 0 25 -5 41 -12 15 -6 32 -10 36 -9 4 0 17 -4 28 -10 12 -6
33 -13 47 -16 35 -7 44 -9 62 -16 23 -9 122 -36 150 -40 14 -2 32 -7 40 -10 8
-3 29 -8 47 -11 17 -2 35 -6 40 -9 4 -3 31 -8 58 -11 28 -4 66 -11 85 -16 19
-5 62 -11 95 -15 32 -4 62 -8 66 -11 15 -9 237 -15 544 -15 358 0 444 4 580
28 22 4 48 8 58 9 9 1 18 2 20 4 4 3 41 10 82 15 22 3 47 8 55 11 8 4 31 8 50
11 19 2 42 7 50 10 8 3 24 8 35 10 36 8 116 30 145 41 8 3 24 7 34 9 11 2 67
20 125 39 58 20 113 37 121 37 8 0 21 6 28 14 7 7 21 13 31 13 9 0 21 4 26 8
6 4 28 14 50 21 69 24 345 154 387 183 14 10 53 32 85 49 114 59 308 185 445
290 16 12 25 25 22 30 -3 5 1 7 8 4 7 -3 24 5 38 17 14 13 42 36 63 51 49 37
184 167 174 167 -5 0 -21 -12 -37 -27 -15 -16 -56 -50 -89 -76 -34 -27 -61
-53 -61 -58 0 -5 -5 -9 -12 -9 -6 0 -20 -7 -30 -17 -10 -9 -18 -11 -18 -6 0 6
6 13 13 16 15 6 182 145 240 200 20 20 37 32 37 27 0 -5 -4 -12 -10 -15 -5 -3
-10 -12 -10 -18 0 -7 36 26 81 72 44 46 78 90 75 97 -3 7 3 18 12 26 11 9 14
10 8 1 -4 -7 -3 -13 2 -13 15 0 33 26 24 35 -4 5 -2 5 4 2 6 -4 22 6 35 20
l24 27 -30 -19 -30 -18 19 21 c11 12 25 22 32 22 16 0 36 34 26 45 -4 5 1 5
11 2 11 -4 16 -3 12 3 -3 6 2 10 12 10 15 0 16 2 3 10 -11 7 -11 10 -2 10 7 0
10 4 7 10 -4 6 1 7 11 3 13 -5 16 -3 11 10 -3 9 -1 19 5 23 7 5 8 2 3 -6 -5
-9 -4 -11 3 -6 7 4 12 12 12 18 0 6 8 16 17 23 9 7 17 19 19 28 1 9 16 33 33
54 92 115 121 154 121 163 0 5 4 10 9 10 5 0 12 8 15 18 13 34 37 72 47 72 5
0 9 6 9 14 0 8 6 21 13 28 18 20 66 95 69 110 2 7 6 15 9 18 4 3 26 43 50 90
23 47 53 102 66 123 13 20 21 37 18 37 -3 0 8 26 24 58 59 117 73 147 76 162
2 8 16 47 30 85 62 163 143 436 160 535 3 19 10 49 15 65 5 17 11 48 14 70 2
22 7 51 10 65 4 14 9 49 12 79 3 30 8 59 11 64 24 39 23 1047 -1 1086 -3 4 -8
34 -11 66 -4 33 -9 63 -12 67 -2 4 -6 29 -9 55 -3 27 -10 64 -14 83 -5 19 -12
50 -15 69 -3 19 -8 38 -11 42 -2 4 -8 27 -13 51 -5 24 -17 68 -26 98 -9 30
-18 64 -20 75 -33 147 -257 686 -319 765 -6 8 -25 42 -41 75 -17 33 -33 62
-37 63 -5 2 -8 10 -8 17 0 8 -8 18 -17 24 -10 5 -17 12 -15 16 2 3 -12 29 -30
58 -18 29 -35 57 -37 62 -2 6 -32 47 -65 91 -34 45 -68 92 -76 104 -26 37 -76
100 -168 210 -132 159 -505 502 -652 600 -12 8 -41 30 -64 47 -22 18 -46 33
-52 33 -7 0 -14 7 -18 15 -3 8 -12 15 -21 15 -8 0 -15 5 -15 10 0 6 -7 10 -15
10 -8 0 -15 3 -15 8 0 4 -21 19 -47 32 -27 14 -50 28 -53 31 -3 3 -18 14 -35
23 -16 9 -57 32 -90 51 -120 68 -321 163 -455 216 -41 16 -84 34 -95 38 -81
36 -455 146 -534 157 -19 2 -37 7 -42 9 -4 3 -27 8 -51 11 -24 3 -59 9 -78 14
-19 5 -60 12 -90 15 -30 3 -63 9 -73 11 -10 3 -35 8 -55 10 -41 5 -849 14
-854 9z m332 -104 c0 -3 -45 -7 -100 -7 -55 -1 -100 2 -100 6 0 3 38 6 85 6
47 -1 85 2 85 6 0 4 7 5 15 2 8 -4 15 -9 15 -13z m100 0 c0 -8 -80 -4 -89 5
-2 2 17 4 42 4 26 0 47 -4 47 -9z m205 -2 c3 -3 -38 -5 -90 -4 -52 1 -98 4
-101 8 -4 3 37 5 90 3 52 -1 98 -5 101 -7z m-588 -6 c-9 -8 -57 -13 -57 -6 0
5 14 9 31 9 16 1 28 0 26 -3z m70 1 c-3 -3 -12 -4 -19 -1 -8 3 -5 6 6 6 11 1
17 -2 13 -5z m649 -12 c-10 -2 -22 0 -28 6 -6 6 0 7 19 4 21 -5 23 -7 9 -10z
m-901 -13 c-51 -10 -92 -10 -50 1 17 4 44 8 60 8 25 0 24 -2 -10 -9z m1045 3
c0 -5 -13 -7 -30 -4 -16 2 -30 6 -30 8 0 2 14 4 30 4 17 0 30 -4 30 -8z m43
-9 c-7 -2 -19 -2 -25 0 -7 3 -2 5 12 5 14 0 19 -2 13 -5z m-1253 -13 c0 -5 -8
-10 -17 -10 -15 0 -16 2 -3 10 19 12 20 12 20 0z m1369 -5 c3 -3 -7 -4 -23 -1
-16 3 -31 8 -35 11 -3 3 7 4 23 1 16 -3 31 -8 35 -11z m-1479 -19 c0 -2 -11
-6 -25 -8 -13 -3 -22 -1 -19 3 5 9 44 13 44 5z m-75 -15 c-12 -10 -100 -32
-90 -23 5 6 61 24 95 31 2 1 0 -3 -5 -8z m1745 -1 c11 -7 6 -8 -19 -5 -18 2
-36 6 -39 9 -9 10 42 6 58 -4z m56 -18 c-10 -2 -22 0 -28 6 -6 6 0 7 19 4 21
-5 23 -7 9 -10z m-1921 -12 c-3 -5 -12 -10 -18 -10 -7 0 -6 4 3 10 19 12 23
12 15 0z m2030 -18 c-3 -3 -11 0 -18 7 -9 10 -8 11 6 5 10 -3 15 -9 12 -12z
m-2087 3 c-3 -3 -20 -10 -38 -15 -19 -5 -29 -6 -24 -1 12 12 74 27 62 16z
m2152 -17 c0 -10 -9 -9 -35 2 -17 8 -16 8 8 7 15 -1 27 -5 27 -9z m-2281 -22
c-2 -2 -60 -23 -129 -46 -69 -24 -165 -61 -215 -82 -108 -48 -130 -55 -90 -32
48 29 129 62 279 114 76 27 141 51 144 54 3 3 8 4 10 1 3 -3 3 -7 1 -9z m2368
-2 c-3 -3 -12 -4 -19 -1 -8 3 -5 6 6 6 11 1 17 -2 13 -5z m33 -14 c0 -5 -2
-10 -4 -10 -3 0 -8 5 -11 10 -3 6 -1 10 4 10 6 0 11 -4 11 -10z m127 -41 c34
-11 65 -24 68 -28 6 -10 -154 44 -164 55 -3 4 3 4 14 0 11 -4 48 -16 82 -27z
m133 -62 c0 -9 -36 9 -44 22 -4 5 5 4 19 -2 14 -7 25 -16 25 -20z m76 -28 c3
-5 -7 -4 -23 3 -41 17 -53 30 -15 17 18 -6 35 -15 38 -20z m114 -55 c0 -2 -9
0 -20 6 -11 6 -20 13 -20 16 0 2 9 0 20 -6 11 -6 20 -13 20 -16z m-3365 -3
c-6 -5 -21 -11 -35 -15 -21 -5 -20 -3 5 9 35 17 42 18 30 6z m3434 -28 c2 -2
0 -3 -6 -3 -6 0 -21 9 -34 21 l-24 20 30 -17 c17 -10 32 -19 34 -21z m-3499
-1 c0 -5 -26 -21 -57 -35 -55 -25 -121 -61 -170 -93 -13 -8 -23 -11 -23 -6 0
5 15 16 33 25 17 10 73 40 122 66 50 27 91 50 93 50 1 1 2 -3 2 -7z m3620 -65
c0 -5 -21 3 -47 18 -70 41 -77 51 -11 19 32 -16 58 -33 58 -37z m87 -42 c34
-20 63 -38 63 -41 0 -3 -30 12 -67 32 -77 42 -80 44 -68 44 4 0 37 -16 72 -35z
m-3989 -50 c-15 -14 -30 -25 -34 -25 -4 0 -42 -23 -83 -52 -42 -28 -71 -45
-64 -38 12 13 195 139 203 140 3 0 -7 -11 -22 -25z m4155 -55 c3 0 23 -11 43
-25 20 -14 34 -25 30 -25 -14 0 -94 51 -107 68 -12 15 -12 15 7 0 11 -10 23
-18 27 -18z m-383 -96 c0 -2 -9 0 -20 6 -11 6 -20 13 -20 16 0 2 9 0 20 -6 11
-6 20 -13 20 -16z m530 -5 c0 -4 -7 -6 -15 -3 -8 4 -15 10 -15 15 0 4 7 6 15
3 8 -4 15 -10 15 -15z m-500 -4 c7 -9 8 -15 2 -15 -5 0 -12 7 -16 15 -3 8 -4
15 -2 15 2 0 9 -7 16 -15z m-3275 -15 c-3 -5 -12 -10 -18 -10 -7 0 -6 4 3 10
19 12 23 12 15 0z m3806 -7 c13 -16 12 -17 -3 -4 -10 7 -18 15 -18 17 0 8 8 3
21 -13z m-4601 -3 c0 -5 -6 -10 -12 -10 -7 0 -31 -16 -53 -35 -21 -19 -41 -32
-44 -30 -2 3 -2 6 0 8 29 23 103 77 105 77 2 0 4 -4 4 -10z m3860 0 c8 -5 11
-10 5 -10 -5 0 -17 5 -25 10 -8 5 -10 10 -5 10 6 0 17 -5 25 -10z m340 -57 c8
-8 -13 2 -47 22 -35 21 -63 39 -63 42 0 7 92 -47 110 -64z m445 29 c-3 -3 -11
0 -18 7 -9 10 -8 11 6 5 10 -3 15 -9 12 -12z m-3925 4 c0 -2 -7 -7 -16 -10 -8
-3 -12 -2 -9 4 6 10 25 14 25 6z m3210 -18 c0 -6 -6 -5 -15 2 -8 7 -15 14 -15
16 0 2 7 1 15 -2 8 -4 15 -11 15 -16z m84 -47 c-2 -3 -12 3 -22 13 -16 17 -16
18 5 5 12 -7 20 -15 17 -18z m716 -2 c3 -3 16 -13 30 -22 13 -9 20 -17 14 -17
-6 0 -28 16 -50 36 -21 20 -30 30 -19 23 11 -8 22 -17 25 -20z m-485 11 c3 -5
2 -10 -4 -10 -5 0 -13 5 -16 10 -3 6 -2 10 4 10 5 0 13 -4 16 -10z m-4405 -40
c0 -5 -5 -10 -11 -10 -5 0 -7 5 -4 10 3 6 8 10 11 10 2 0 4 -4 4 -10z m4254
-19 c-2 -3 -12 3 -22 13 -16 17 -16 18 5 5 12 -7 20 -15 17 -18z m-3839 -21
c-3 -5 -12 -10 -18 -10 -7 0 -6 4 3 10 19 12 23 12 15 0z m-515 -40 c0 -5 -5
-10 -11 -10 -5 0 -7 5 -4 10 3 6 8 10 11 10 2 0 4 -4 4 -10z m4520 -37 c0 -7
-39 17 -46 28 -3 6 5 3 20 -6 14 -10 26 -19 26 -22z m625 17 c3 -6 -1 -7 -9
-4 -18 7 -21 14 -7 14 6 0 13 -4 16 -10z m-5166 -3 c-2 -1 -13 -9 -24 -17 -19
-14 -19 -14 -6 3 7 9 18 17 24 17 6 0 8 -1 6 -3z m-69 -60 c0 -2 -17 -19 -37
-38 l-38 -34 34 38 c33 34 41 42 41 34z m367 -72 c0 -8 -4 -12 -9 -9 -5 3 -6
10 -3 15 9 13 12 11 12 -6z m5047 -35 c27 -28 46 -50 42 -50 -4 0 -29 23 -57
50 -27 28 -46 50 -42 50 4 0 30 -23 57 -50z m-5515 -2 c-2 -2 -24 -21 -49 -43
l-45 -40 40 43 c21 23 43 42 49 42 5 0 7 -1 5 -2z m5641 -130 c0 -6 -6 -5 -15
2 -8 7 -15 14 -15 16 0 2 7 1 15 -2 8 -4 15 -11 15 -16z m-5809 -41 c-10 -9
-11 -8 -5 6 3 10 9 15 12 12 3 -3 0 -11 -7 -18z m5889 -60 c0 -12 0 -11 -24
28 l-17 30 20 -24 c12 -13 21 -28 21 -34z m-5949 -10 l-24 -22 19 27 c10 14
21 24 23 22 3 -3 -6 -15 -18 -27z m2359 -47 c-27 -39 -34 -39 -12 0 9 16 21
30 25 30 5 0 -1 -13 -13 -30z m3694 -69 c-4 -5 -19 13 -55 64 -12 17 -3 10 19
-15 22 -25 38 -47 36 -49z m-6130 22 c-16 -21 -31 -40 -34 -43 -3 -3 -28 -36
-54 -75 -27 -38 -53 -74 -59 -80 -20 -21 25 52 66 107 23 31 56 74 72 96 17
22 32 39 34 37 1 -2 -10 -21 -25 -42z m6176 -78 l25 -30 -27 24 c-16 14 -28
29 -28 34 0 6 1 8 3 6 1 -2 13 -17 27 -34z m48 -65 c13 -16 19 -30 14 -30 -4
0 -16 14 -25 30 -10 17 -16 30 -14 30 2 0 13 -13 25 -30z m-5941 -25 c15 -13
22 -25 16 -25 -7 0 -13 4 -13 10 0 5 -9 14 -21 20 -15 9 -24 8 -37 -2 -15 -12
-16 -11 -3 5 18 23 25 22 58 -8z m6026 -97 c84 -130 130 -209 124 -214 -4 -4
-47 61 -47 72 0 4 -20 35 -99 159 -14 22 -29 42 -33 43 -9 4 -11 22 -3 22 2 0
28 -37 58 -82z m-5987 23 c-8 -15 -23 -34 -32 -42 -11 -8 -7 1 9 25 14 22 23
44 20 49 -3 6 -1 7 5 3 9 -5 8 -14 -2 -35z m2563 -35 c-2 -2 -13 8 -23 22
l-19 27 24 -22 c12 -12 21 -24 18 -27z m-3059 30 c0 -3 -4 -8 -10 -11 -5 -3
-10 -1 -10 4 0 6 5 11 10 11 6 0 10 -2 10 -4z m3430 -35 c-5 -11 -19 -19 -29
-18 -11 0 -17 5 -15 9 3 5 9 6 14 3 4 -3 13 2 20 10 17 21 23 19 10 -4z
m-3110 5 c0 -2 -8 -10 -17 -17 -16 -13 -17 -12 -4 4 13 16 21 21 21 13z m2106
-41 c-9 -14 -20 -25 -25 -25 -5 0 -18 -3 -28 -6 -10 -3 -3 3 15 15 18 12 35
28 39 36 3 9 8 14 11 11 2 -3 -3 -17 -12 -31z m1604 31 c0 -2 -8 -10 -17 -17
-16 -13 -17 -12 -4 4 13 16 21 21 21 13z m-4082 -36 c-7 -11 -16 -20 -20 -20
-5 0 -3 9 4 20 7 11 16 20 20 20 5 0 3 -9 -4 -20z m466 -32 c-44 -62 -78 -99
-44 -48 37 54 72 100 77 100 3 0 -12 -24 -33 -52z m-141 18 c-10 -13 -20 -22
-22 -20 -4 4 29 44 36 44 2 0 -4 -11 -14 -24z m3422 4 c3 -5 2 -10 -4 -10 -5
0 -13 5 -16 10 -3 6 -2 10 4 10 5 0 13 -4 16 -10z m-3793 -57 c-32 -45 -152
-266 -152 -280 0 -7 -5 -13 -10 -13 -11 0 17 60 88 185 55 97 85 145 90 140 2
-2 -5 -16 -16 -32z m2401 20 c-7 -2 -19 -2 -25 0 -7 3 -2 5 12 5 14 0 19 -2
13 -5z m1532 -3 c4 -6 -6 -7 -27 -3 -44 8 -48 13 -10 13 17 0 34 -4 37 -10z
m-1605 -10 c-8 -5 -22 -9 -30 -9 -10 0 -8 3 5 9 27 12 43 12 25 0z m-70 -18
c0 -5 -7 -9 -15 -9 -8 0 -12 4 -9 9 3 4 9 8 15 8 5 0 9 -4 9 -8z m-1944 -24
c-9 -13 -34 -53 -57 -90 -40 -65 -62 -92 -38 -45 19 37 100 157 106 157 3 0
-2 -10 -11 -22z m1904 12 c0 -5 -5 -10 -11 -10 -5 0 -7 5 -4 10 3 6 8 10 11
10 2 0 4 -4 4 -10z m-99 -36 c-18 -8 -36 -13 -39 -10 -6 7 37 25 58 25 8 -1 0
-7 -19 -15z m4257 -9 c-3 -3 -9 2 -12 12 -6 14 -5 15 5 6 7 -7 10 -15 7 -18z
m-5945 -16 c-10 -17 -24 -36 -32 -42 -8 -7 -2 7 14 31 32 49 45 57 18 11z
m1627 6 c-7 -8 -20 -15 -29 -15 -11 1 -8 5 9 15 32 18 35 18 20 0z m2190 -4
c0 -5 8 -12 18 -14 14 -4 14 -5 1 -6 -9 0 -22 6 -29 14 -9 10 -9 15 -1 15 6 0
11 -4 11 -9z m-2246 -23 c-3 -4 -10 -8 -16 -8 -6 0 -44 -16 -85 -35 -104 -49
-106 -43 -3 9 83 41 114 51 104 34z m2536 2 c0 -5 -2 -10 -4 -10 -3 0 -8 5
-11 10 -3 6 -1 10 4 10 6 0 11 -4 11 -10z m2250 -123 c52 -107 61 -127 55
-127 -6 0 -36 59 -33 63 2 2 -2 10 -9 18 -14 17 -73 125 -73 133 0 23 21 -8
60 -87z m-2235 43 c3 -5 1 -10 -4 -10 -6 0 -11 5 -11 10 0 6 2 10 4 10 3 0 8
-4 11 -10z m-2765 -20 c-14 -11 -29 -20 -35 -20 -5 0 4 9 20 20 38 25 48 25
15 0z m3925 -10 c3 -5 1 -10 -4 -10 -6 0 -11 5 -11 10 0 6 2 10 4 10 3 0 8 -4
11 -10z m-1155 -6 c0 -8 -19 -13 -24 -6 -3 5 1 9 9 9 8 0 15 -2 15 -3z m1120
-14 c-8 -5 -17 -7 -19 -4 -3 3 1 9 9 14 8 5 17 7 19 4 3 -3 -1 -9 -9 -14z
m-5490 -10 c-6 -11 -13 -20 -16 -20 -2 0 0 9 6 20 6 11 13 20 16 20 2 0 0 -9
-6 -20z m1549 16 c-16 -16 -79 -54 -79 -48 0 5 17 18 38 30 35 21 50 27 41 18z
m3991 -16 c0 -5 -5 -10 -11 -10 -5 0 -7 5 -4 10 3 6 8 10 11 10 2 0 4 -4 4
-10z m-1100 -26 c0 -2 -7 -4 -15 -4 -8 0 -15 4 -15 10 0 5 7 7 15 4 8 -4 15
-8 15 -10z m973 -20 c-26 -20 -54 -43 -60 -52 -7 -9 -13 -11 -13 -5 0 11 99
93 113 93 5 0 -13 -16 -40 -36z m-5290 11 c-3 -9 -8 -14 -10 -11 -3 3 -2 9 2
15 9 16 15 13 8 -4z m-155 -22 c-6 -16 -18 -35 -25 -43 -7 -8 -4 4 7 28 23 47
36 58 18 15z m1487 18 c-3 -5 -33 -28 -68 -51 -34 -23 -55 -34 -46 -25 13 13
107 81 117 84 2 1 1 -3 -3 -8z m4051 -39 c-15 -15 -15 -15 -4 10 7 15 15 23
17 17 2 -6 -4 -18 -13 -27z m-5866 -2 c0 -5 -4 -10 -10 -10 -5 0 -10 5 -10 10
0 6 5 10 10 10 6 0 10 -4 10 -10z m-25 -49 c-3 -12 -10 -21 -15 -21 -4 0 -3
11 3 24 14 29 22 27 12 -3z m5860 -26 c-12 -31 -25 -58 -29 -62 -8 -8 19 68
34 96 20 39 18 21 -5 -34z m-5413 16 c-9 -16 -18 -28 -21 -26 -4 5 27 55 34
55 2 0 -4 -13 -13 -29z m-146 -9 c-17 -16 -18 -16 -5 5 7 12 15 20 18 17 3 -2
-3 -12 -13 -22z m6763 -2 c11 -24 11 -24 -3 -6 -9 11 -16 24 -16 30 0 12 5 7
19 -24z m-5370 3 c-7 -10 -28 -31 -48 -47 -32 -26 -31 -24 9 17 47 50 57 58
39 30z m3996 7 c-3 -5 -12 -10 -18 -10 -7 0 -6 4 3 10 19 12 23 12 15 0z
m-5737 -89 c-12 -33 -26 -61 -30 -61 -4 0 5 29 20 64 34 81 42 78 10 -3z m332
39 c-6 -11 -13 -20 -16 -20 -2 0 0 9 6 20 6 11 13 20 16 20 2 0 0 -9 -6 -20z
m132 -7 c-5 -10 -19 -39 -31 -65 -13 -27 -26 -50 -31 -53 -4 -3 7 26 26 65 19
38 37 70 40 70 2 0 1 -8 -4 -17z m3706 2 c3 -3 -37 -5 -89 -6 -358 -2 -500 -1
-505 4 -3 3 74 6 172 7 98 0 179 2 180 3 5 4 237 -3 242 -8z m62 -1 c0 -2 -11
-4 -25 -4 -14 0 -25 4 -25 9 0 4 11 6 25 3 14 -2 25 -6 25 -8z m46 3 c4 -4 -2
-7 -14 -7 -12 0 -22 4 -22 9 0 10 26 9 36 -2z m64 1 c0 -5 -11 -8 -25 -8 -14
0 -25 3 -25 8 0 4 11 7 25 7 14 0 25 -3 25 -7z m423 2 c-7 -7 -393 -7 -388 0
2 3 91 5 198 5 108 0 193 -2 190 -5z m61 1 c-8 -8 -34 -10 -38 -2 -3 4 6 7 19
7 14 0 22 -2 19 -5z m81 -21 c4 -6 -5 -5 -19 2 -14 6 -26 15 -26 20 0 10 36
-7 45 -22z m-2171 12 c2 -4 -5 -9 -17 -9 -17 -2 -19 0 -7 7 18 12 18 12 24 2z
m86 -2 c0 -5 -2 -10 -4 -10 -3 0 -8 5 -11 10 -3 6 -1 10 4 10 6 0 11 -4 11
-10z m90 0 c-8 -5 -19 -10 -25 -10 -5 0 -3 5 5 10 8 5 20 10 25 10 6 0 3 -5
-5 -10z m95 0 c-3 -5 -12 -10 -18 -10 -7 0 -6 4 3 10 19 12 23 12 15 0z m40 0
c-3 -5 -12 -10 -18 -10 -7 0 -6 4 3 10 19 12 23 12 15 0z m55 6 c0 -3 -4 -8
-10 -11 -5 -3 -10 -1 -10 4 0 6 5 11 10 11 6 0 10 -2 10 -4z m50 -6 c-20 -13
-33 -13 -25 0 3 6 14 10 23 10 15 0 15 -2 2 -10z m127 4 c-7 -7 -106 -11 -102
-4 2 3 27 7 55 7 29 1 50 0 47 -3z m59 -1 c-10 -10 -46 -11 -40 -1 3 4 15 8
26 8 12 0 18 -3 14 -7z m44 3 c0 -2 -7 -7 -16 -10 -8 -3 -12 -2 -9 4 6 10 25
14 25 6z m49 -6 c-6 -5 -18 -6 -26 -3 -19 8 -16 11 13 11 17 0 22 -3 13 -8z
m48 4 c-3 -3 -12 -4 -19 -1 -8 3 -5 6 6 6 11 1 17 -2 13 -5z m83 -2 c0 -4 -16
-6 -35 -4 -19 2 -35 6 -35 8 0 2 16 4 35 4 19 0 35 -4 35 -8z m-1735 -37 c-22
-19 -44 -34 -48 -35 -5 0 6 12 25 28 18 15 35 30 36 35 2 4 9 7 15 7 7 0 -6
-16 -28 -35z m-1522 -10 c-3 -9 -8 -14 -10 -11 -3 3 -2 9 2 15 9 16 15 13 8
-4z m1757 5 c0 -5 -4 -10 -10 -10 -5 0 -10 5 -10 10 0 6 5 10 10 10 6 0 10 -4
10 -10z m40 2 c0 -5 -7 -9 -15 -9 -8 0 -12 4 -9 9 3 4 9 8 15 8 5 0 9 -4 9 -8z
m3759 -36 c-7 -20 -16 -36 -20 -36 -4 0 0 18 9 39 21 48 29 46 11 -3z m-4246
9 c-3 -9 -8 -14 -10 -11 -3 3 -2 9 2 15 9 16 15 13 8 -4z m363 -10 c-16 -14
-32 -25 -35 -25 -8 1 48 50 57 50 4 0 -6 -11 -22 -25z m188 -4 c-2 -3 -12 3
-22 13 -16 17 -16 18 5 5 12 -7 20 -15 17 -18z m2817 7 c11 -21 11 -22 -4 -9
-10 7 -17 17 -17 22 0 15 9 10 21 -13z m617 8 c-7 -8 -15 -12 -17 -11 -5 6 10
25 20 25 5 0 4 -6 -3 -14z m-5322 -38 c-9 -12 -16 -19 -16 -15 0 11 24 47 28
42 2 -2 -3 -14 -12 -27z m1473 -1 c-13 -13 -26 -21 -29 -19 -5 4 38 42 48 42
3 0 -6 -10 -19 -23z m3451 -15 c0 -1 -9 2 -20 8 -11 6 -20 15 -20 20 0 6 9 2
20 -7 11 -10 20 -19 20 -21z m370 34 c0 -2 -8 -10 -17 -17 -16 -13 -17 -12 -4
4 13 16 21 21 21 13z m-3980 -11 c0 -2 -10 -9 -22 -15 -22 -11 -22 -10 -4 4
21 17 26 19 26 11z m620 -45 c28 -55 25 -64 -5 -11 -26 44 -28 51 -20 51 2 0
14 -18 25 -40z m-282 5 c-6 -14 -13 -23 -15 -21 -5 5 15 46 22 46 3 0 -1 -11
-7 -25z m3107 15 c3 -5 1 -10 -4 -10 -6 0 -11 5 -11 10 0 6 2 10 4 10 3 0 8
-4 11 -10z m495 -4 c0 -2 -8 -10 -17 -17 -16 -13 -17 -12 -4 4 13 16 21 21 21
13z m284 -56 c-10 -27 -21 -50 -25 -50 -3 0 3 24 15 54 26 68 35 65 10 -4z
m-5870 20 c-17 -33 -27 -40 -17 -12 6 17 23 42 28 42 2 0 -3 -13 -11 -30z
m307 3 c-12 -20 -14 -14 -5 12 4 9 9 14 11 11 3 -2 0 -13 -6 -23z m142 12 c-3
-9 -8 -14 -10 -11 -3 3 -2 9 2 15 9 16 15 13 8 -4z m1157 11 c0 -2 -8 -10 -17
-17 -16 -13 -17 -12 -4 4 13 16 21 21 21 13z m148 -16 c-7 -10 -14 -17 -17
-15 -4 4 18 35 25 35 2 0 -1 -9 -8 -20z m3992 5 c0 -2 -10 -9 -22 -15 -22 -11
-22 -10 -4 4 21 17 26 19 26 11z m-2971 -18 c-2 -1 -13 -9 -24 -17 -19 -14
-19 -14 -6 3 7 9 18 17 24 17 6 0 8 -1 6 -3z m4489 -22 c-3 -3 -9 2 -12 12 -6
14 -5 15 5 6 7 -7 10 -15 7 -18z m-5545 0 c-3 -9 -8 -14 -10 -11 -3 3 -2 9 2
15 9 16 15 13 8 -4z m-1439 -44 c-9 -23 -18 -40 -20 -38 -2 2 4 22 13 45 9 23
18 40 20 38 2 -2 -4 -22 -13 -45z m2555 1 c6 -20 10 -39 10 -42 0 -3 4 -18 10
-33 6 -16 7 -26 2 -23 -5 3 -15 30 -21 58 -7 29 -17 61 -22 72 -7 13 -7 16 1
12 6 -4 15 -24 20 -44z m-2418 15 c-10 -9 -11 -8 -5 6 3 10 9 15 12 12 3 -3 0
-11 -7 -18z m4759 -2 c13 -14 21 -25 18 -25 -2 0 -15 11 -28 25 -13 14 -21 25
-18 25 2 0 15 -11 28 -25z m145 15 c3 -5 1 -10 -4 -10 -6 0 -11 5 -11 10 0 6
2 10 4 10 3 0 8 -4 11 -10z m-5342 -15 c-3 -9 -8 -14 -10 -11 -3 3 -2 9 2 15
9 16 15 13 8 -4z m2237 -5 c0 -5 -5 -10 -11 -10 -5 0 -7 5 -4 10 3 6 8 10 11
10 2 0 4 -4 4 -10z m3270 6 c0 -2 -8 -10 -17 -17 -16 -13 -17 -12 -4 4 13 16
21 21 21 13z m179 2 c-2 -2 -17 -14 -34 -28 l-30 -25 24 28 c14 15 29 27 34
27 6 0 8 -1 6 -2z m43 -48 c-9 -27 -19 -50 -23 -50 -5 0 -2 15 5 33 7 17 16
40 19 50 4 9 8 17 11 17 2 0 -3 -22 -12 -50z m-5307 0 c-9 -16 -18 -30 -21
-30 -2 0 2 14 11 30 9 17 18 30 21 30 2 0 -2 -13 -11 -30z m1865 10 c-6 -11
-13 -20 -16 -20 -2 0 0 9 6 20 6 11 13 20 16 20 2 0 0 -9 -6 -20z m-2310 -27
c-11 -17 -11 -17 -6 0 3 10 6 24 7 30 0 9 2 9 5 0 3 -7 0 -20 -6 -30z m5877 1
c-34 -75 -47 -98 -41 -74 11 40 44 113 49 108 3 -3 -1 -18 -8 -34z m-4131 6
c21 -10 32 -19 24 -20 -8 0 -28 9 -45 20 -38 25 -30 25 21 0z m284 0 c6 -11 8
-20 6 -20 -3 0 -10 9 -16 20 -6 11 -8 20 -6 20 3 0 10 -9 16 -20z m205 1 c-12
-20 -43 -32 -51 -19 -4 6 -3 8 3 5 6 -4 19 2 29 12 20 19 31 20 19 2z m-75 -1
c-8 -4 -26 -11 -40 -15 -21 -7 -23 -5 -13 6 6 8 24 15 39 16 19 1 23 -1 14 -7z
m3279 -17 c2 -2 -3 -3 -11 -3 -9 0 -19 7 -22 16 -6 15 -4 15 11 3 10 -7 20
-15 22 -16z m-2661 -30 c7 -20 7 -35 1 -38 -5 -4 -9 -3 -9 2 0 4 -5 25 -9 47
-11 44 1 37 17 -11z m2862 43 c0 -2 -8 -10 -17 -17 -16 -13 -17 -12 -4 4 13
16 21 21 21 13z m-3825 -25 c3 -5 19 -12 36 -16 17 -4 28 -9 25 -12 -6 -7 -74
16 -81 28 -4 5 -2 9 4 9 5 0 12 -4 16 -9z m342 3 c-3 -3 -12 -4 -19 -1 -8 3
-5 6 6 6 11 1 17 -2 13 -5z m133 3 c0 -2 -10 -12 -22 -23 l-23 -19 19 23 c18
21 26 27 26 19z m-1873 -29 c-3 -8 -6 -5 -6 6 -1 11 2 17 5 13 3 -3 4 -12 1
-19z m1699 -25 c-6 -8 -44 11 -54 27 -10 16 -7 16 22 -3 19 -12 33 -23 32 -24z
m5241 32 c0 -8 -4 -12 -9 -9 -5 3 -6 10 -3 15 9 13 12 11 12 -6z m-5787 -5
c13 -8 13 -10 -2 -10 -9 0 -20 5 -23 10 -8 13 5 13 25 0z m4144 -34 c-3 -15
-8 -25 -11 -23 -2 3 -1 17 3 31 3 15 8 25 11 23 2 -3 1 -17 -3 -31z m-4094 2
c0 -6 -6 -5 -15 2 -8 7 -15 14 -15 16 0 2 7 1 15 -2 8 -4 15 -11 15 -16z m291
5 c13 -16 12 -17 -3 -4 -10 7 -18 15 -18 17 0 8 8 3 21 -13z m329 12 c0 -2
-13 -11 -30 -20 -16 -9 -30 -12 -30 -7 0 4 12 13 28 19 15 6 28 11 30 12 1 1
2 -1 2 -4z m983 -5 c3 -3 -12 -5 -33 -5 -21 -1 -37 2 -35 5 5 7 61 7 68 0z
m37 0 c0 -5 -4 -10 -10 -10 -5 0 -10 5 -10 10 0 6 5 10 10 10 6 0 10 -4 10
-10z m140 0 c0 -3 -29 -6 -65 -6 -36 0 -65 3 -65 6 0 3 29 5 65 5 36 0 65 -2
65 -5z m64 -1 c3 -2 -9 -5 -26 -6 -18 0 -26 2 -18 7 13 8 36 8 44 -1z m121 -1
c4 -3 -19 -6 -49 -6 -31 1 -56 4 -56 7 0 8 97 7 105 -1z m127 -6 c7 -7 -25
-48 -57 -72 -11 -8 -2 5 20 28 l39 42 -58 0 c-31 0 -55 4 -52 9 6 10 97 4 108
-7z m1618 -27 c9 -27 8 -40 -3 -62 -15 -27 -15 -27 -10 18 3 27 0 55 -7 69 -7
12 -7 20 -2 16 6 -3 16 -22 22 -41z m-5350 26 c0 -6 -4 -12 -8 -15 -5 -3 -9 1
-9 9 0 8 4 15 9 15 4 0 8 -4 8 -9z m1990 -33 c0 -5 -7 -3 -15 6 -8 8 -15 18
-15 22 0 3 7 1 15 -6 8 -7 15 -17 15 -22z m194 23 c4 -5 -3 -7 -14 -4 -23 6
-26 13 -6 13 8 0 17 -4 20 -9z m911 -20 c0 -16 -3 -27 -7 -24 -10 5 -10 37 -1
46 9 10 9 10 8 -22z m-1305 -48 c0 -7 -5 -13 -11 -13 -5 0 -7 5 -4 10 4 6 -14
19 -39 31 -25 11 -48 24 -51 30 -4 5 19 -3 49 -18 31 -15 56 -33 56 -40z
m-1384 20 c-8 -15 -15 -25 -16 -21 0 12 23 58 27 54 3 -2 -2 -17 -11 -33z
m6998 21 c9 -24 2 -26 -12 -4 -7 11 -8 20 -3 20 5 0 12 -7 15 -16z m-4473 -75
c-2 -88 -11 -87 -11 1 0 40 3 70 6 67 4 -3 6 -34 5 -68z m-946 52 c3 -5 2 -12
-3 -15 -5 -3 -9 1 -9 9 0 17 3 19 12 6z m-2025 -48 c-11 -17 -11 -17 -6 0 3
10 7 26 7 35 1 15 2 15 6 0 2 -10 -1 -25 -7 -35z m5824 -86 c14 -32 21 -55 17
-52 -5 2 -21 35 -37 72 -15 38 -31 72 -36 78 -4 5 -8 16 -7 25 0 15 17 -17 63
-123z m-2290 98 c-4 -8 -10 -12 -15 -9 -11 6 -2 24 11 24 5 0 7 -7 4 -15z
m-3107 -17 c-3 -8 -6 -5 -6 6 -1 11 2 17 5 13 3 -3 4 -12 1 -19z m1373 14 c0
-5 -7 -9 -15 -9 -8 0 -12 4 -9 9 3 4 9 8 15 8 5 0 9 -4 9 -8z m1443 -7 c4 -8
3 -16 -1 -19 -4 -3 -9 4 -9 15 -2 23 3 25 10 4z m-91 -20 c3 -13 1 -22 -3 -19
-9 5 -13 44 -5 44 2 0 6 -11 8 -25z m518 20 c0 -8 -54 -56 -75 -66 -11 -6 0 8
25 30 46 42 50 44 50 36z m-1911 -9 c-2 -2 -15 -9 -29 -15 -24 -11 -24 -11 -6
3 16 13 49 24 35 12z m4175 -45 c-6 -6 -11 1 -18 29 l-7 25 15 -25 c8 -14 12
-27 10 -29z m1539 19 c3 -11 2 -18 -3 -15 -4 3 -10 14 -13 25 -3 11 -2 18 3
15 4 -3 10 -14 13 -25z m-5444 16 c-14 -12 -69 -35 -69 -28 0 4 12 13 28 19
28 11 48 16 41 9z m1481 0 c0 -2 -8 -10 -17 -17 -16 -13 -17 -12 -4 4 13 16
21 21 21 13z m1851 -14 c-5 -10 -18 -25 -27 -33 -11 -9 -9 -2 6 19 26 35 36
42 21 14z m100 -66 c-56 -75 -63 -72 -10 4 24 33 45 58 47 56 2 -3 -15 -30
-37 -60z m-3782 51 c-28 -21 -59 -36 -59 -29 0 9 37 30 54 31 5 1 7 0 5 -2z
m-1708 -66 c-22 -82 -32 -87 -13 -6 9 36 19 65 23 65 3 0 -1 -27 -10 -59z
m436 37 c-3 -8 -6 -5 -6 6 -1 11 2 17 5 13 3 -3 4 -12 1 -19z m2750 0 c-3 -8
-6 -5 -6 6 -1 11 2 17 5 13 3 -3 4 -12 1 -19z m101 16 c-4 -3 -2 -19 3 -37 5
-17 5 -26 0 -21 -15 16 -22 64 -10 64 7 0 10 -3 7 -6z m2527 -66 l30 -33 -30
26 c-16 14 -43 38 -60 54 l-30 28 30 -21 c17 -11 44 -35 60 -54z m-3915 29
c-30 -19 -59 -31 -64 -29 -9 5 90 61 109 62 5 0 -15 -15 -45 -33z m967 1 c-3
-7 -5 -2 -5 12 0 14 2 19 5 13 2 -7 2 -19 0 -25z m2739 0 l29 -33 -35 30 c-19
17 -37 31 -39 33 -2 1 0 2 5 2 6 0 23 -15 40 -32z m1913 -8 c11 -24 11 -24 -3
-6 -9 11 -16 24 -16 30 0 12 5 7 19 -24z m-4069 16 c0 -7 -84 -86 -92 -86 -6
0 83 89 90 90 1 0 2 -2 2 -4z m1900 1 c0 -2 -12 -14 -27 -28 l-26 -24 19 27
c16 23 34 36 34 25z m-4929 -34 c-12 -20 -14 -14 -5 12 4 9 9 14 11 11 3 -2 0
-13 -6 -23z m1252 7 c3 -11 1 -18 -4 -14 -5 3 -9 12 -9 20 0 20 7 17 13 -6z
m1528 0 c1 -11 2 -23 3 -27 5 -21 27 -123 28 -128 0 -2 6 -26 14 -51 8 -26 12
-49 9 -52 -6 -7 -25 44 -31 87 -3 20 -9 52 -14 71 -5 19 -12 50 -15 69 -3 19
-8 38 -11 43 -3 4 0 8 5 8 6 0 12 -9 12 -20z m363 -8 c-16 -15 -31 -26 -34
-24 -5 4 47 52 57 52 3 0 -7 -12 -23 -28z m2452 -49 c13 -32 24 -62 24 -68 -1
-10 -60 122 -60 133 0 14 15 -13 36 -65z m-3158 2 c-14 -31 -21 -26 -12 9 3
14 10 23 15 21 4 -3 3 -17 -3 -30z m4681 -10 c0 -5 -4 -3 -9 5 -5 8 -9 22 -9
30 0 16 17 -16 18 -35z m-7126 20 c-3 -9 -8 -14 -10 -11 -3 3 -2 9 2 15 9 16
15 13 8 -4z m1285 -10 c-3 -3 -9 2 -12 12 -6 14 -5 15 5 6 7 -7 10 -15 7 -18z
m4172 11 c0 -3 -4 -8 -10 -11 -5 -3 -10 -1 -10 4 0 6 5 11 10 11 6 0 10 -2 10
-4z m-2560 -26 c0 -5 -2 -10 -4 -10 -3 0 -8 5 -11 10 -3 6 -1 10 4 10 6 0 11
-4 11 -10z m-2913 -22 c-3 -8 -6 -5 -6 6 -1 11 2 17 5 13 3 -3 4 -12 1 -19z
m1503 -3 c13 -14 21 -25 18 -25 -2 0 -15 11 -28 25 -13 14 -21 25 -18 25 2 0
15 -11 28 -25z m1570 9 c-8 -8 -23 -20 -34 -25 -13 -7 -9 -1 9 15 34 29 43 33
25 10z m2275 -23 c-6 -5 -25 10 -25 20 0 5 6 4 14 -3 8 -7 12 -15 11 -17z
m-3981 -19 c19 -27 19 -27 -12 2 -35 32 -38 38 -19 30 6 -3 21 -17 31 -32z
m-1796 -2 c-1 -16 -6 -30 -11 -30 -5 0 -6 7 -3 16 3 9 6 22 6 30 0 8 2 14 5
14 3 0 4 -13 3 -30z m2866 -5 c-4 -8 -8 -15 -10 -15 -2 0 -4 7 -4 15 0 8 4 15
10 15 5 0 7 -7 4 -15z m-2574 -10 c0 -8 -4 -15 -10 -15 -5 0 -7 7 -4 15 4 8 8
15 10 15 2 0 4 -7 4 -15z m4939 2 c-2 -2 -32 -27 -67 -55 -61 -51 -103 -75
-51 -29 14 12 45 39 69 60 24 20 45 35 48 32 3 -3 3 -6 1 -8z m2382 -122 c-2
-5 -10 15 -17 45 -19 79 -15 95 5 25 10 -33 15 -64 12 -70z m-1763 95 c7 -11
11 -20 9 -20 -2 0 -12 9 -22 20 -10 11 -14 20 -9 20 5 0 15 -9 22 -20z m263
-48 c6 -20 15 -41 19 -47 4 -5 11 -21 14 -35 6 -22 6 -23 -5 -6 -18 30 -59
137 -49 131 5 -3 14 -22 21 -43z m-4212 -12 c44 -43 39 -51 -6 -9 -21 18 -40
35 -42 37 -2 1 0 2 6 2 5 0 24 -14 42 -30z m1466 20 c-3 -5 -11 -10 -16 -10
-6 0 -7 5 -4 10 3 6 11 10 16 10 6 0 7 -4 4 -10z m2545 -16 c0 -2 -9 0 -20 6
-11 6 -20 13 -20 16 0 2 9 0 20 -6 11 -6 20 -13 20 -16z m-5932 -9 c-3 -3 -9
2 -12 12 -6 14 -5 15 5 6 7 -7 10 -15 7 -18z m289 -5 c1 -11 -2 -22 -6 -24 -6
-4 -7 26 -2 42 3 8 7 -1 8 -18z m1828 0 c10 -11 16 -20 13 -20 -3 0 -13 9 -23
20 -10 11 -16 20 -13 20 3 0 13 -9 23 -20z m3230 10 c3 -5 1 -10 -4 -10 -6 0
-11 5 -11 10 0 6 2 10 4 10 3 0 8 -4 11 -10z m-2534 -33 c-10 -9 -11 -8 -5 6
3 10 9 15 12 12 3 -3 0 -11 -7 -18z m3189 -23 c0 -3 -13 4 -30 16 -16 12 -30
24 -30 26 0 3 14 -4 30 -16 17 -12 30 -24 30 -26z m-900 32 c0 -3 -4 -8 -10
-11 -5 -3 -10 -1 -10 4 0 6 5 11 10 11 6 0 10 -2 10 -4z m-5113 -28 c-3 -8 -6
-5 -6 6 -1 11 2 17 5 13 3 -3 4 -12 1 -19z m414 -5 c-12 -20 -14 -14 -5 12 4
9 9 14 11 11 3 -2 0 -13 -6 -23z m1775 10 c11 -10 31 -24 45 -32 101 -59 139
-78 145 -73 4 4 4 2 0 -5 -4 -8 -24 -2 -67 23 -34 19 -65 34 -70 34 -5 0 -9 5
-9 10 0 6 -5 10 -11 10 -6 0 -24 11 -41 25 -16 14 -26 25 -21 25 5 0 18 -8 29
-17z m-186 -15 c0 -6 -6 -5 -15 2 -8 7 -15 14 -15 16 0 2 7 1 15 -2 8 -4 15
-11 15 -16z m3080 18 c0 -2 -8 -10 -17 -17 -16 -13 -17 -12 -4 4 13 16 21 21
21 13z m-4790 -16 c0 -5 -5 -10 -11 -10 -5 0 -7 5 -4 10 3 6 8 10 11 10 2 0 4
-4 4 -10z m-306 -67 c-4 -32 -10 -62 -14 -66 -5 -6 1 66 8 88 1 3 2 12 2 20 0
8 2 15 5 15 2 0 2 -26 -1 -57z m2062 30 c-6 -6 -36 9 -36 18 0 5 9 4 20 -3 10
-7 18 -14 16 -15z m744 11 c0 -8 -5 -12 -10 -9 -6 4 -8 11 -5 16 9 14 15 11
15 -7z m160 12 c0 -3 -4 -8 -10 -11 -5 -3 -10 -1 -10 4 0 6 5 11 10 11 6 0 10
-2 10 -4z m2085 -5 c-29 -27 -237 -130 -370 -183 -89 -35 -33 -3 72 41 56 24
144 67 195 96 89 51 124 66 103 46z m-4761 -48 c-7 -38 -16 -45 -10 -8 5 36 5
35 10 35 3 0 2 -12 0 -27z m1809 7 c7 -6 21 -17 32 -25 11 -7 18 -15 15 -18
-3 -2 -23 9 -44 24 -21 16 -34 29 -27 29 6 0 17 -5 24 -10z m827 7 c0 -2 -12
-14 -27 -28 l-28 -24 24 28 c23 25 31 32 31 24z m-86 -57 c-6 -5 -24 21 -24
34 0 6 6 1 14 -10 8 -10 12 -21 10 -24z m3386 20 c0 -5 -2 -10 -4 -10 -3 0 -8
5 -11 10 -3 6 -1 10 4 10 6 0 11 -4 11 -10z m-5810 -4 c0 -3 -4 -8 -10 -11 -5
-3 -10 -1 -10 4 0 6 5 11 10 11 6 0 10 -2 10 -4z m4690 -31 c-13 -14 -27 -25
-32 -25 -5 0 3 11 18 25 15 14 29 25 32 25 3 0 -5 -11 -18 -25z m1070 10 c0
-12 -19 -12 -23 0 -4 9 -1 12 9 8 7 -3 14 -7 14 -8z m1507 -17 c-3 -7 -5 -2
-5 12 0 14 2 19 5 13 2 -7 2 -19 0 -25z m-5252 12 c3 -6 -1 -7 -9 -4 -18 7
-21 14 -7 14 6 0 13 -4 16 -10z m3808 -5 c4 -8 2 -17 -3 -20 -6 -4 -10 3 -10
14 0 25 6 27 13 6z m-4019 -24 c-2 -3 -12 3 -22 13 -16 17 -16 18 5 5 12 -7
20 -15 17 -18z m251 9 c3 -6 -1 -7 -9 -4 -18 7 -21 14 -7 14 6 0 13 -4 16 -10z
m-2198 -22 c-3 -8 -6 -5 -6 6 -1 11 2 17 5 13 3 -3 4 -12 1 -19z m2059 -46
c-6 -5 -96 46 -96 54 0 3 23 -7 50 -22 28 -15 48 -29 46 -32z m5362 17 c1 -18
1 -31 -2 -28 -7 7 -15 69 -7 65 4 -3 8 -19 9 -37z m-5084 -3 c10 -3 17 -9 14
-11 -6 -6 -98 31 -98 39 0 3 15 -1 33 -8 17 -7 41 -16 51 -20z m-2338 -13 c-3
-16 -8 -46 -11 -68 -5 -37 -8 -63 -19 -215 -3 -30 -5 -84 -5 -119 -1 -35 -4
-62 -7 -58 -7 6 -6 134 2 242 3 39 5 77 6 85 0 8 7 44 14 79 7 36 11 68 8 73
-3 4 0 8 6 8 7 0 9 -10 6 -27z m115 -6 c-10 -9 -11 -8 -5 6 3 10 9 15 12 12 3
-3 0 -11 -7 -18z m-409 -27 c-6 -41 -13 -38 -10 4 1 19 5 33 8 31 4 -2 5 -18
2 -35z m2451 -9 c37 -17 73 -31 80 -32 8 0 8 -2 1 -5 -12 -5 -164 62 -164 72
0 3 3 3 8 1 4 -2 37 -18 75 -36z m251 30 c11 -4 15 -10 10 -13 -5 -2 -20 1
-34 8 -26 14 -8 18 24 5z m-2291 -26 c-3 -9 -8 -14 -10 -11 -3 3 -2 9 2 15 9
16 15 13 8 -4z m4185 9 c-3 -3 -34 -14 -68 -24 -34 -10 -59 -16 -55 -12 6 7
100 39 119 41 5 1 7 -2 4 -5z m-1788 -19 c19 -7 28 -14 20 -14 -8 0 -28 6 -45
14 -39 17 -21 18 25 0z m2065 -5 c-3 -5 -14 -10 -23 -9 -14 0 -13 2 3 9 27 11
27 11 20 0z m50 -8 c-3 -3 -11 0 -18 7 -9 10 -8 11 6 5 10 -3 15 -9 12 -12z
m-465 -6 c0 -2 -7 -7 -16 -10 -8 -3 -12 -2 -9 4 6 10 25 14 25 6z m-4467 -26
c-3 -11 -7 -20 -9 -20 -2 0 -4 9 -4 20 0 11 4 20 9 20 5 0 7 -9 4 -20z m2948
2 c-7 -2 -18 1 -23 6 -8 8 -4 9 13 5 13 -4 18 -8 10 -11z m1464 7 c-4 -6 -9
-8 -12 -6 -2 3 -18 1 -34 -3 -16 -5 -29 -5 -29 0 0 8 20 13 68 19 7 0 10 -4 7
-10z m-4003 -26 c-3 -16 -7 -22 -10 -15 -4 13 4 42 11 42 2 0 2 -12 -1 -27z
m4389 0 c-12 -20 -14 -14 -5 12 4 9 9 14 11 11 3 -2 0 -13 -6 -23z m-471 13
c0 -2 -7 -7 -16 -10 -8 -3 -12 -2 -9 4 6 10 25 14 25 6z m-60 -16 c-20 -13
-33 -13 -25 0 3 6 14 10 23 10 15 0 15 -2 2 -10z m-4273 -25 c0 -8 -4 -12 -9
-9 -5 3 -6 10 -3 15 9 13 12 11 12 -6z m2693 5 c8 -5 11 -10 5 -10 -5 0 -17 5
-25 10 -8 5 -10 10 -5 10 6 0 17 -5 25 -10z m610 -11 c15 -5 6 -6 -25 -2 -27
3 -57 9 -65 14 -17 9 51 0 90 -12z m-2898 -49 c-6 -43 -12 -37 -10 10 1 23 4
36 8 30 4 -6 5 -24 2 -40z m2353 40 c3 -5 2 -10 -4 -10 -5 0 -13 5 -16 10 -3
6 -2 10 4 10 5 0 13 -4 16 -10z m89 -30 c8 -8 3 -8 -15 -1 -15 5 -29 8 -32 5
-2 -2 -10 2 -16 10 -11 13 -8 14 20 6 18 -5 37 -15 43 -20z m576 22 c0 -5 -13
-7 -30 -4 -16 2 -30 6 -30 8 0 2 14 4 30 4 17 0 30 -4 30 -8z m495 -3 c5 -6
-8 -7 -133 -11 -89 -3 -115 9 -29 14 74 4 156 3 162 -3z m73 4 c-10 -2 -26 -2
-35 0 -10 3 -2 5 17 5 19 0 27 -2 18 -5z m615 -6 c3 -8 -1 -14 -9 -14 -15 0
-18 9 -7 20 9 9 10 9 16 -6z m-983 -7 c0 -8 -131 -3 -139 6 -3 2 28 4 67 3 40
-1 72 -5 72 -9z m49 0 c-6 -5 -18 -6 -26 -3 -19 8 -16 11 13 11 17 0 22 -3 13
-8z m836 -10 c-3 -5 -12 -10 -18 -10 -7 0 -6 4 3 10 19 12 23 12 15 0z m-1559
-28 c-10 -2 -22 0 -28 6 -6 6 0 7 19 4 21 -5 23 -7 9 -10z m1504 8 c0 -5 -7
-7 -15 -4 -8 4 -15 8 -15 10 0 2 7 4 15 4 8 0 15 -4 15 -10z m-179 -43 c-10
-9 -11 -8 -5 6 3 10 9 15 12 12 3 -3 0 -11 -7 -18z m-3877 -34 c-4 -35 -6
-371 -3 -390 1 -4 0 -17 -1 -28 -2 -18 -3 -18 -8 3 -13 44 -5 452 9 452 4 0 5
-17 3 -37z m3898 -4 c11 -6 17 -13 15 -16 -7 -6 -67 38 -67 50 0 4 7 1 16 -7
8 -9 25 -21 36 -27z m125 -4 c0 -19 -3 -35 -7 -35 -3 0 -7 16 -8 35 -2 19 1
35 6 35 5 0 9 -16 9 -35z m-1097 14 c0 -4 -10 -6 -21 -4 -32 6 -34 13 -4 13
14 0 25 -4 25 -9z m-65 -19 c10 -11 16 -20 13 -20 -3 0 -13 9 -23 20 -10 11
-16 20 -13 20 3 0 13 -9 23 -20z m138 13 c-7 -2 -21 -2 -30 0 -10 3 -4 5 12 5
17 0 24 -2 18 -5z m604 1 c-3 -3 -12 -4 -19 -1 -8 3 -5 6 6 6 11 1 17 -2 13
-5z m133 -4 c8 -5 12 -11 10 -14 -3 -2 -14 2 -24 10 -22 15 -10 19 14 4z
m-505 -10 c-3 -5 -10 -10 -16 -10 -5 0 -9 5 -9 10 0 6 7 10 16 10 8 0 12 -4 9
-10z m55 -2 c0 -3 -9 -6 -20 -5 -11 1 -20 5 -20 9 0 3 9 6 20 5 11 -1 20 -5
20 -9z m60 4 c0 -4 -9 -8 -20 -8 -11 0 -20 4 -20 8 0 4 9 8 20 8 11 0 20 -4
20 -8z m119 4 c-8 -8 -98 -10 -105 -3 -4 4 19 7 51 7 32 0 56 -2 54 -4z m364
-65 c7 -8 -7 -2 -30 14 -24 15 -43 30 -43 32 0 7 61 -31 73 -46z m-799 -2
c-10 -11 -28 -25 -39 -31 -11 -6 -4 4 15 20 41 36 51 41 24 11z m996 -1 c0
-12 -3 -18 -7 -14 -11 10 -12 36 -2 36 5 0 9 -10 9 -22z m-1235 2 c3 -6 -1 -7
-9 -4 -18 7 -21 14 -7 14 6 0 13 -4 16 -10z m40 -40 c10 -11 16 -20 13 -20 -3
0 -13 9 -23 20 -10 11 -16 20 -13 20 3 0 13 -9 23 -20z m1085 -22 c0 -5 -11
-1 -25 8 -14 9 -25 18 -25 20 0 2 11 -2 25 -8 14 -6 25 -15 25 -20z m-810 9
c0 -2 -17 -19 -37 -38 l-38 -34 34 38 c33 34 41 42 41 34z m-229 -34 c13 -16
12 -17 -3 -4 -17 13 -22 21 -14 21 2 0 10 -8 17 -17z m-3294 -40 c-3 -10 -5
-4 -5 12 0 17 2 24 5 18 2 -7 2 -21 0 -30z m7780 5 c-3 -8 -6 -5 -6 6 -1 11 2
17 5 13 3 -3 4 -12 1 -19z m-4337 -15 c0 -5 -13 -17 -28 -27 l-27 -19 24 26
c26 28 31 32 31 20z m4337 -85 c-2 -18 -4 -6 -4 27 0 33 2 48 4 33 2 -15 2
-42 0 -60z m-7775 37 c2 -19 0 -35 -4 -35 -4 0 -8 16 -8 35 0 19 2 35 4 35 2
0 6 -16 8 -35z m-5 -67 c-3 -8 -6 -5 -6 6 -1 11 2 17 5 13 3 -3 4 -12 1 -19z
m7783 -24 c0 -8 -5 -12 -10 -9 -6 4 -8 11 -5 16 9 14 15 11 15 -7z m-7485 -23
c3 -5 2 -12 -3 -15 -5 -3 -9 1 -9 9 0 17 3 19 12 6z m5 -35 c0 -3 -4 -8 -10
-11 -5 -3 -10 -1 -10 4 0 6 5 11 10 11 6 0 10 -2 10 -4z m7478 -41 c-2 -25 -6
-45 -11 -45 -4 0 -6 20 -5 45 2 25 6 45 11 45 4 0 6 -20 5 -45z m-7768 15 c0
-5 -5 -10 -11 -10 -5 0 -7 5 -4 10 3 6 8 10 11 10 2 0 4 -4 4 -10z m281 -33
c-10 -9 -11 -8 -5 6 3 10 9 15 12 12 3 -3 0 -11 -7 -18z m126 6 c-1 -20 11
-147 20 -208 3 -22 3 -37 -1 -34 -8 7 -12 28 -21 119 -3 36 -9 82 -12 103 -2
20 -1 37 5 37 5 0 9 -8 9 -17z m7347 -115 c-1 -29 -2 -65 -3 -80 0 -16 -5 -28
-10 -28 -5 0 -7 17 -5 38 3 20 6 56 7 80 1 23 4 42 8 42 3 0 5 -24 3 -52z
m-4959 -18 c3 -6 -1 -7 -9 -4 -18 7 -21 14 -7 14 6 0 13 -4 16 -10z m2095 -5
c0 -2 -9 -3 -19 -2 -11 0 -18 5 -15 9 4 6 34 0 34 -7z m-4872 -110 c0 -22 -3
-18 -9 15 -4 25 -7 59 -7 75 0 22 3 18 9 -15 4 -25 7 -58 7 -75z m4059 109
c-3 -3 -12 -4 -19 -1 -8 3 -5 6 6 6 11 1 17 -2 13 -5z m908 -5 c6 -4 13 -8 18
-8 19 -1 35 -19 45 -50 14 -41 7 -36 -16 11 -10 18 -23 34 -29 34 -7 1 -14 2
-15 4 -2 1 -19 4 -38 7 -19 2 -37 7 -40 10 -8 8 64 0 75 -8z m-315 -23 c0 -3
-4 -8 -10 -11 -5 -3 -10 -1 -10 4 0 6 5 11 10 11 6 0 10 -2 10 -4z m-5 -35 c3
-5 2 -12 -3 -15 -5 -3 -9 1 -9 9 0 17 3 19 12 6z m3079 -58 c-11 -77 -22 -126
-24 -103 -1 14 -1 30 0 35 3 14 7 46 9 73 0 12 5 22 10 22 4 0 7 -12 5 -27z
m-2687 -5 c-3 -8 -6 -5 -6 6 -1 11 2 17 5 13 3 -3 4 -12 1 -19z m-4617 -9 c0
-5 -4 -9 -8 -9 -5 0 -9 7 -9 15 0 8 4 12 9 9 4 -3 8 -9 8 -15z m4523 8 c3 -8
1 -20 -4 -28 -6 -10 -9 -7 -9 14 0 29 5 35 13 14z m-4523 -42 c0 -21 1 -27 11
-52 5 -14 5 -23 -1 -23 -6 0 -10 9 -10 20 0 29 -1 33 -11 53 -6 11 -6 17 1 17
5 0 10 -7 10 -15z m-400 -45 c0 -5 -5 -10 -11 -10 -5 0 -7 5 -4 10 3 6 8 10
11 10 2 0 4 -4 4 -10z m2877 -22 c-3 -7 -5 -2 -5 12 0 14 2 19 5 13 2 -7 2
-19 0 -25z m-2880 -20 c-3 -8 -6 -5 -6 6 -1 11 2 17 5 13 3 -3 4 -12 1 -19z
m4933 8 c0 -3 -4 -8 -10 -11 -5 -3 -10 -1 -10 4 0 6 5 11 10 11 6 0 10 -2 10
-4z m87 -48 c-2 -13 -4 -5 -4 17 -1 22 1 32 4 23 2 -10 2 -28 0 -40z m-4599
17 c-3 -3 -9 2 -12 12 -6 14 -5 15 5 6 7 -7 10 -15 7 -18z m7257 -12 c-4 -21
-9 -49 -12 -63 -6 -36 -16 -41 -10 -5 11 68 20 105 24 105 3 0 2 -17 -2 -37z
m-2752 -18 c-3 -9 -8 -14 -10 -11 -3 3 -2 9 2 15 9 16 15 13 8 -4z m-1375 -30
c-3 -3 -9 2 -12 12 -6 14 -5 15 5 6 7 -7 10 -15 7 -18z m1468 -20 c-4 -31 -36
-93 -36 -69 0 5 4 14 9 20 5 5 12 25 14 44 6 41 6 40 12 40 3 0 3 -16 1 -35z
m-102 0 c-9 -14 -19 -23 -22 -20 -5 4 26 45 35 45 2 0 -4 -11 -13 -25z m-4893
3 c0 -7 2 -21 4 -31 2 -11 2 -17 0 -15 -2 1 -4 8 -5 13 -1 6 -6 18 -11 28 -6
11 -6 17 1 17 5 0 10 -6 11 -12z m419 -23 c0 -5 -5 -3 -10 5 -5 8 -10 20 -10
25 0 6 5 3 10 -5 5 -8 10 -19 10 -25z m3936 23 c3 -4 -1 -5 -10 -4 -8 1 -18 5
-22 8 -3 4 1 5 10 4 8 -1 18 -5 22 -8z m341 -10 c-3 -8 -6 -5 -6 6 -1 11 2 17
5 13 3 -3 4 -12 1 -19z m-1600 -20 c-3 -8 -6 -5 -6 6 -1 11 2 17 5 13 3 -3 4
-12 1 -19z m1720 16 c-3 -3 -12 -4 -19 -1 -8 3 -5 6 6 6 11 1 17 -2 13 -5z
m-120 -36 c-3 -8 -6 -5 -6 6 -1 11 2 17 5 13 3 -3 4 -12 1 -19z m-4269 -13
c-3 -3 -9 2 -12 12 -6 14 -5 15 5 6 7 -7 10 -15 7 -18z m2669 -52 c-2 -16 -4
-5 -4 22 0 28 2 40 4 28 2 -13 2 -35 0 -50z m4533 32 c0 -8 -4 -15 -10 -15 -5
0 -7 7 -4 15 4 8 8 15 10 15 2 0 4 -7 4 -15z m-4310 -9 c0 -3 -4 -8 -10 -11
-5 -3 -10 -1 -10 4 0 6 5 11 10 11 6 0 10 -2 10 -4z m-3292 -61 c0 -16 -2 -15
-8 5 -11 34 -11 60 0 35 5 -11 8 -29 8 -40z m3866 40 c-4 -8 -8 -15 -10 -15
-2 0 -4 7 -4 15 0 8 4 15 10 15 5 0 7 -7 4 -15z m113 -10 c0 -20 -4 -19 -17 5
-8 15 -8 18 3 14 8 -3 14 -11 14 -19z m690 3 c-3 -8 -6 -5 -6 6 -1 11 2 17 5
13 3 -3 4 -12 1 -19z m105 -5 c-5 -10 -7 -25 -5 -33 4 -12 3 -13 -5 -1 -8 11
-9 28 -3 49 1 1 6 2 11 2 7 0 7 -6 2 -17z m-1492 -58 c0 -36 -3 -65 -7 -65 -5
0 -6 29 -5 65 2 36 6 65 8 65 2 0 4 -29 4 -65z m1387 -7 c-2 -13 -4 -5 -4 17
-1 22 1 32 4 23 2 -10 2 -28 0 -40z m-1587 35 c0 -5 -5 -15 -10 -23 -8 -12
-10 -11 -10 8 0 12 5 22 10 22 6 0 10 -3 10 -7z m4510 3 c0 -3 -4 -8 -10 -11
-5 -3 -10 -1 -10 4 0 6 5 11 10 11 6 0 10 -2 10 -4z m-2828 -58 c-8 -8 -9 -4
-5 13 4 13 8 18 11 10 2 -7 -1 -18 -6 -23z m-1688 -22 c2 -14 0 -23 -4 -21 -4
3 -7 16 -7 30 0 32 8 26 11 -9z m-247 2 c-3 -8 -6 -5 -6 6 -1 11 2 17 5 13 3
-3 4 -12 1 -19z m1643 -8 c0 -16 -4 -30 -8 -30 -5 0 -7 14 -4 30 2 17 6 30 8
30 2 0 4 -13 4 -30z m-4447 5 c4 -8 3 -16 -1 -19 -4 -3 -9 4 -9 15 -2 23 3 25
10 4z m4648 -63 c1 -40 -1 -75 -5 -79 -3 -3 -6 31 -6 77 0 101 8 103 11 2z
m-4351 58 c0 -5 -2 -10 -4 -10 -3 0 -8 5 -11 10 -3 6 -1 10 4 10 6 0 11 -4 11
-10z m2507 -42 c-3 -7 -5 -2 -5 12 0 14 2 19 5 13 2 -7 2 -19 0 -25z m4724 -2
c-11 -27 -24 -37 -16 -11 3 8 7 22 10 31 3 9 8 15 11 12 2 -3 0 -17 -5 -32z
m-4278 4 c-3 -12 -8 -19 -11 -16 -5 6 5 36 12 36 2 0 2 -9 -1 -20z m-3236 -42
c-3 -7 -5 -2 -5 12 0 14 2 19 5 13 2 -7 2 -19 0 -25z m2790 -40 c-3 -7 -5 -2
-5 12 0 14 2 19 5 13 2 -7 2 -19 0 -25z m1723 22 c0 -5 -9 -14 -20 -20 -24
-13 -26 -7 -4 14 18 18 24 20 24 6z m-4496 -16 c3 -8 2 -12 -4 -9 -6 3 -10 10
-10 16 0 14 7 11 14 -7z m304 -39 c0 -16 -2 -15 -8 5 -11 34 -11 60 0 35 5
-11 8 -29 8 -40z m4405 40 c-3 -9 -8 -14 -10 -11 -3 3 -2 9 2 15 9 16 15 13 8
-4z m2758 -18 c-10 -9 -11 -8 -5 6 3 10 9 15 12 12 3 -3 0 -11 -7 -18z m-15
-58 c-15 -34 -15 -34 -9 -4 7 35 13 48 20 42 2 -3 -3 -20 -11 -38z m-7407 -62
c16 -51 33 -102 37 -112 5 -13 4 -17 -3 -10 -9 9 -73 193 -73 209 0 22 12 -6
39 -87z m279 48 c-3 -3 -9 2 -12 12 -6 14 -5 15 5 6 7 -7 10 -15 7 -18z m22
-50 c0 -5 -5 -3 -10 5 -5 8 -10 20 -10 25 0 6 5 3 10 -5 5 -8 10 -19 10 -25z
m14 -31 c3 -8 2 -12 -4 -9 -6 3 -10 10 -10 16 0 14 7 11 14 -7z m7061 -3 c3
-5 2 -12 -3 -15 -5 -3 -9 1 -9 9 0 17 3 19 12 6z m-25 -71 c-6 -11 -13 -20
-16 -20 -2 0 0 9 6 20 6 11 13 20 16 20 2 0 0 -9 -6 -20z m-6999 -26 c5 -15 8
-29 5 -31 -2 -2 -8 10 -14 26 -13 38 -5 41 9 5z m6979 -34 c-6 -11 -13 -20
-16 -20 -2 0 0 9 6 20 6 11 13 20 16 20 2 0 0 -9 -6 -20z m-7265 -20 c3 -5 1
-10 -4 -10 -6 0 -11 5 -11 10 0 6 2 10 4 10 3 0 8 -4 11 -10z m313 -15 c-3 -3
-9 2 -12 12 -6 14 -5 15 5 6 7 -7 10 -15 7 -18z m6901 -87 c-49 -113 -151
-320 -155 -315 -2 2 23 57 55 123 32 65 73 156 92 201 19 45 37 83 41 83 3 0
-11 -42 -33 -92z m-276 67 c-3 -9 -8 -14 -10 -11 -3 3 -2 9 2 15 9 16 15 13 8
-4z m-6604 -29 c-3 -3 -11 5 -18 17 -13 21 -12 21 5 5 10 -10 16 -20 13 -22z
m-310 0 c9 -11 9 -16 -1 -22 -7 -4 -10 -4 -6 1 4 4 3 14 -3 22 -6 7 -9 13 -6
13 2 0 10 -6 16 -14z m2358 -62 c-3 -3 -12 -4 -19 -1 -8 3 -5 6 6 6 11 1 17
-2 13 -5z m1196 -9 c-3 -9 -8 -14 -10 -11 -3 3 -2 9 2 15 9 16 15 13 8 -4z
m1682 5 c3 -6 -1 -7 -9 -4 -18 7 -21 14 -7 14 6 0 13 -4 16 -10z m-4887 -25
c-3 -3 -9 2 -12 12 -6 14 -5 15 5 6 7 -7 10 -15 7 -18z m2786 9 c3 -8 2 -12
-4 -9 -6 3 -10 10 -10 16 0 14 7 11 14 -7z m1082 -16 c-9 -12 -16 -19 -16 -15
0 11 24 47 28 42 2 -2 -3 -14 -12 -27z m505 5 c-12 -20 -14 -14 -5 12 4 9 9
14 11 11 3 -2 0 -13 -6 -23z m-3231 2 c7 -9 8 -15 2 -15 -5 0 -12 7 -16 15 -3
8 -4 15 -2 15 2 0 9 -7 16 -15z m3300 1 c0 -3 -4 -8 -10 -11 -5 -3 -10 -1 -10
4 0 6 5 11 10 11 6 0 10 -2 10 -4z m947 -18 c-3 -8 -6 -5 -6 6 -1 11 2 17 5
13 3 -3 4 -12 1 -19z m-527 2 c18 -12 2 -12 -25 0 -13 6 -15 9 -5 9 8 0 22 -4
30 -9z m-4840 -15 c0 -8 -2 -15 -4 -15 -2 0 -6 7 -10 15 -3 8 -1 15 4 15 6 0
10 -7 10 -15z m785 -3 c-3 -3 -11 0 -18 7 -9 10 -8 11 6 5 10 -3 15 -9 12 -12z
m4678 -7 c-3 -9 -8 -14 -10 -11 -3 3 -2 9 2 15 9 16 15 13 8 -4z m-3636 -10
c0 -8 -4 -12 -9 -9 -5 3 -6 10 -3 15 9 13 12 11 12 -6z m3033 5 c0 -5 -5 -10
-11 -10 -5 0 -7 5 -4 10 3 6 8 10 11 10 2 0 4 -4 4 -10z m722 -22 c-8 -8 -9
-4 -5 13 4 13 8 18 11 10 2 -7 -1 -18 -6 -23z m-2875 0 c-3 -8 -6 -5 -6 6 -1
11 2 17 5 13 3 -3 4 -12 1 -19z m2192 -22 c-3 -3 -11 5 -18 17 -13 21 -12 21
5 5 10 -10 16 -20 13 -22z m-1492 2 c-3 -8 -6 -5 -6 6 -1 11 2 17 5 13 3 -3 4
-12 1 -19z m713 16 c0 -8 -19 -13 -24 -6 -3 5 1 9 9 9 8 0 15 -2 15 -3z m60
-15 c0 -5 -4 -9 -8 -9 -5 0 -9 7 -9 15 0 8 4 12 9 9 4 -3 8 -9 8 -15z m2115
-29 c-14 -27 -28 -50 -30 -50 -3 0 6 23 20 50 14 28 28 50 30 50 3 0 -6 -22
-20 -50z m-3075 5 c0 -5 -5 -3 -10 5 -5 8 -10 20 -10 25 0 6 5 3 10 -5 5 -8
10 -19 10 -25z m823 15 c3 -11 1 -18 -4 -14 -5 3 -9 12 -9 20 0 20 7 17 13 -6z
m-3994 -40 c11 -24 11 -24 -3 -6 -9 11 -16 24 -16 30 0 12 5 7 19 -24z m2188
-2 c-3 -8 -6 -5 -6 6 -1 11 2 17 5 13 3 -3 4 -12 1 -19z m2833 18 c0 -2 -8
-10 -17 -17 -16 -13 -17 -12 -4 4 13 16 21 21 21 13z m-3704 -26 c8 0 14 -5
14 -10 0 -7 -6 -7 -20 0 -11 6 -20 16 -19 23 0 9 2 9 6 0 2 -7 11 -13 19 -13z
m-1608 -38 c13 -28 16 -39 7 -27 -24 29 -47 75 -38 75 5 0 18 -22 31 -48z
m1166 36 c-3 -4 -9 -8 -15 -8 -5 0 -9 4 -9 8 0 5 7 9 15 9 8 0 12 -4 9 -9z
m256 -4 c0 -2 -9 -4 -20 -4 -11 0 -20 4 -20 9 0 5 9 7 20 4 11 -3 20 -7 20 -9z
m240 12 c0 -2 -8 -10 -17 -17 -16 -13 -17 -12 -4 4 13 16 21 21 21 13z m480
-6 c0 -5 -7 -7 -15 -4 -8 4 -15 8 -15 10 0 2 7 4 15 4 8 0 15 -4 15 -10z m90
0 c0 -5 -5 -10 -11 -10 -5 0 -7 5 -4 10 3 6 8 10 11 10 2 0 4 -4 4 -10z m1430
6 c0 -2 -7 -7 -16 -10 -8 -3 -12 -2 -9 4 6 10 25 14 25 6z m1255 -6 c-3 -5
-12 -10 -18 -10 -7 0 -6 4 3 10 19 12 23 12 15 0z m-1135 -10 c0 -5 -7 -7 -15
-4 -8 4 -15 8 -15 10 0 2 7 4 15 4 8 0 15 -4 15 -10z m-3449 -55 c7 -13 3 -12
-10 5 -11 14 -21 30 -21 35 0 11 14 -7 31 -40z m-453 -5 c11 -22 18 -40 16
-40 -6 0 -44 63 -44 73 0 16 9 5 28 -33z m6745 5 c-3 -9 -8 -14 -10 -11 -3 3
-2 9 2 15 9 16 15 13 8 -4z m-646 -11 c-3 -3 -12 -4 -19 -1 -8 3 -5 6 6 6 11
1 17 -2 13 -5z m-5622 -24 c3 -5 1 -10 -4 -10 -6 0 -11 5 -11 10 0 6 2 10 4
10 3 0 8 -4 11 -10z m-441 -35 c3 -8 1 -15 -3 -15 -5 0 -11 7 -15 15 -3 8 -1
15 3 15 5 0 11 -7 15 -15z m479 -34 c27 -46 14 -38 -18 12 -16 23 -22 37 -14
30 8 -6 22 -25 32 -42z m6486 4 c-12 -19 -23 -35 -25 -35 -6 0 14 40 29 58 18
23 16 12 -4 -23z m-3638 -2 c13 -16 12 -17 -3 -4 -17 13 -22 21 -14 21 2 0 10
-8 17 -17z m291 -11 c22 -22 31 -59 19 -80 -6 -11 -9 -4 -9 23 0 28 -6 44 -22
57 -12 10 -26 16 -30 13 -5 -3 -11 -1 -15 4 -10 17 38 2 57 -17z m148 18 c0
-5 -5 -10 -11 -10 -5 0 -7 5 -4 10 3 6 8 10 11 10 2 0 4 -4 4 -10z m-3600 -36
c12 -19 21 -37 18 -39 -2 -2 -14 14 -26 36 -28 49 -22 52 8 3z m3800 5 c0 -6
-4 -7 -10 -4 -5 3 -10 11 -10 16 0 6 5 7 10 4 6 -3 10 -11 10 -16z m-267 -4
c-3 -9 -8 -14 -10 -11 -3 3 -2 9 2 15 9 16 15 13 8 -4z m107 -36 c16 -59 7
-58 -12 1 -9 28 -12 48 -7 45 4 -3 13 -24 19 -46z m2690 47 c0 -2 -8 -10 -17
-17 -16 -13 -17 -12 -4 4 13 16 21 21 21 13z m-3140 -21 c0 -9 7 -29 15 -44 8
-16 16 -39 19 -52 2 -13 8 -33 12 -44 5 -14 4 -17 -4 -10 -6 6 -13 19 -15 30
-2 11 -7 29 -11 40 -5 11 -14 37 -22 58 -8 22 -10 37 -4 37 6 0 10 -7 10 -15z
m160 5 c0 -5 -2 -10 -4 -10 -3 0 -8 5 -11 10 -3 6 -1 10 4 10 6 0 11 -4 11
-10z m45 0 c3 -6 -4 -10 -17 -10 -18 0 -20 2 -8 10 19 12 18 12 25 0z m-3045
-30 c6 -11 8 -20 6 -20 -3 0 -10 9 -16 20 -6 11 -8 20 -6 20 3 0 10 -9 16 -20z
m2650 10 c0 -5 -5 -10 -11 -10 -5 0 -7 5 -4 10 3 6 8 10 11 10 2 0 4 -4 4 -10z
m84 -5 c-4 -8 -8 -15 -10 -15 -2 0 -4 7 -4 15 0 8 4 15 10 15 5 0 7 -7 4 -15z
m745 -19 c-3 -3 -11 5 -18 17 -13 21 -12 21 5 5 10 -10 16 -20 13 -22z m2927
6 c-17 -16 -18 -16 -5 5 7 12 15 20 18 17 3 -2 -3 -12 -13 -22z m-3350 -10
c-17 -16 -18 -16 -5 5 7 12 15 20 18 17 3 -2 -3 -12 -13 -22z m110 11 c-4 -26
-25 -73 -30 -73 -6 0 3 27 13 45 6 10 7 16 10 35 0 6 3 10 6 10 3 0 3 -8 1
-17z m72 -18 c-3 -3 -9 2 -12 12 -6 14 -5 15 5 6 7 -7 10 -15 7 -18z m-3550
-20 c-3 -3 -9 2 -12 12 -6 14 -5 15 5 6 7 -7 10 -15 7 -18z m3115 10 c4 -8 1
-17 -5 -21 -6 -4 -8 -3 -4 4 3 6 -2 15 -11 21 -16 9 -16 10 -2 11 9 0 19 -7
22 -15z m417 5 c0 -5 -5 -10 -11 -10 -5 0 -7 5 -4 10 3 6 8 10 11 10 2 0 4 -4
4 -10z m-197 -7 c-7 -2 -19 -2 -25 0 -7 3 -2 5 12 5 14 0 19 -2 13 -5z m475
-18 c-3 -3 -9 2 -12 12 -6 14 -5 15 5 6 7 -7 10 -15 7 -18z m-853 6 c3 -5 2
-12 -3 -15 -5 -3 -9 1 -9 9 0 17 3 19 12 6z m125 -7 c0 -8 -5 -12 -10 -9 -6 4
-8 11 -5 16 9 14 15 11 15 -7z m690 -15 c6 -10 7 -19 3 -19 -4 0 -13 11 -20
25 -13 29 2 24 17 -6z m-3419 4 c13 -16 12 -17 -3 -4 -10 7 -18 15 -18 17 0 8
8 3 21 -13z m-291 -68 c25 -41 48 -75 53 -75 4 0 7 -5 7 -10 0 -6 5 -16 10
-23 22 -25 150 -209 150 -214 0 -4 -24 27 -54 68 -30 41 -62 82 -70 92 -9 9
-16 19 -16 22 0 2 -13 24 -29 47 -68 100 -110 168 -103 168 4 0 27 -34 52 -75z
m2836 49 c-7 -38 -14 -40 -12 -5 0 17 4 31 9 31 4 0 5 -12 3 -26z m504 22 c0
-3 -4 -8 -10 -11 -5 -3 -10 -1 -10 4 0 6 5 11 10 11 6 0 10 -2 10 -4z m-2879
-23 c13 -16 12 -17 -3 -4 -10 7 -18 15 -18 17 0 8 8 3 21 -13z m3122 -48 l6
-30 -14 30 c-16 34 -21 72 -6 45 5 -8 11 -28 14 -45z m-207 4 c-8 -19 -15 -29
-15 -22 -1 18 19 67 25 61 3 -3 -2 -21 -10 -39z m3218 16 c-9 -14 -18 -25 -21
-25 -5 0 5 18 20 38 17 22 18 13 1 -13z m-3850 -10 c4 -15 19 -31 39 -39 17
-8 26 -15 19 -15 -24 -2 -51 19 -67 49 -9 17 -11 30 -6 30 5 0 12 -11 15 -25z
m1013 -41 c-3 -3 -12 9 -21 27 -22 45 -20 50 5 11 12 -18 19 -35 16 -38z
m-682 35 c5 -5 -5 -4 -23 2 -17 6 -32 13 -32 16 0 7 43 -8 55 -18z m-2730 -9
c10 -11 16 -20 13 -20 -3 0 -13 9 -23 20 -10 11 -16 20 -13 20 3 0 13 -9 23
-20z m2643 -5 c-23 -27 -34 -33 -22 -12 14 23 26 37 35 37 5 0 -1 -11 -13 -25z
m537 15 c3 -6 -1 -7 -9 -4 -18 7 -21 14 -7 14 6 0 13 -4 16 -10z m-3014 -27
c13 -16 12 -17 -3 -4 -10 7 -18 15 -18 17 0 8 8 3 21 -13z m2360 3 c-14 -17
-51 -28 -51 -15 0 5 9 9 20 9 11 0 20 5 20 10 0 6 5 10 11 10 8 0 8 -4 0 -14z
m554 -5 c-3 -6 -14 -10 -23 -10 -15 1 -15 2 1 6 9 2 17 9 17 15 0 6 3 9 6 5 3
-3 3 -10 -1 -16z m392 4 c0 -8 -4 -12 -9 -9 -5 3 -6 10 -3 15 9 13 12 11 12
-6z m-3927 -31 c0 -8 5 -14 11 -14 5 0 7 -4 4 -10 -3 -5 -2 -10 3 -10 5 0 15
-12 23 -27 7 -16 27 -45 43 -65 16 -21 27 -40 24 -43 -3 -3 -14 7 -24 23 -11
16 -40 61 -66 100 -50 73 -59 93 -33 72 8 -7 15 -19 15 -26z m3050 22 c0 -3
-4 -8 -10 -11 -5 -3 -10 -1 -10 4 0 6 5 11 10 11 6 0 10 -2 10 -4z m210 0 c0
-7 -40 -14 -44 -7 -3 4 6 8 20 9 13 1 24 0 24 -2z m77 -2 c-3 -3 -12 -4 -19
-1 -8 3 -5 6 6 6 11 1 17 -2 13 -5z m-2846 -21 c13 -16 12 -17 -3 -4 -10 7
-18 15 -18 17 0 8 8 3 21 -13z m259 -137 c0 -11 4 -15 -54 59 l-47 60 50 -55
c28 -30 51 -59 51 -64z m5883 99 c-3 -9 -8 -14 -10 -11 -3 3 -2 9 2 15 9 16
15 13 8 -4z m-6073 -57 c15 -21 17 -28 6 -19 -16 13 -41 51 -33 51 2 0 14 -15
27 -32z m6012 -30 c-33 -52 -109 -156 -134 -182 -10 -11 -18 -23 -18 -28 0 -4
-5 -8 -11 -8 -6 0 -2 11 8 24 10 13 38 50 62 82 25 32 47 61 50 64 4 3 19 24
34 48 15 23 29 42 32 42 2 0 -8 -19 -23 -42z m-482 18 c0 -2 -8 -10 -17 -17
-16 -13 -17 -12 -4 4 13 16 21 21 21 13z m-5391 -121 c12 3 21 10 21 15 0 4 8
11 18 14 9 3 1 -8 -18 -24 l-35 -31 -35 38 c-19 21 -42 48 -50 59 -8 11 6 -2
32 -29 36 -38 51 -47 67 -42z m-479 -90 c14 -19 14 -19 -2 -6 -10 7 -18 18
-18 24 0 6 1 8 3 6 1 -2 9 -13 17 -24z m144 9 c3 -8 2 -12 -4 -9 -6 3 -10 10
-10 16 0 14 7 11 14 -7z m41 -44 c10 -11 16 -20 13 -20 -3 0 -13 9 -23 20 -10
11 -16 20 -13 20 3 0 13 -9 23 -20z m-145 -12 c0 -6 -6 -5 -15 2 -8 7 -15 14
-15 16 0 2 7 1 15 -2 8 -4 15 -11 15 -16z m6140 8 c0 -2 -8 -10 -17 -17 -16
-13 -17 -12 -4 4 13 16 21 21 21 13z m-6105 -46 c10 -11 16 -20 13 -20 -3 0
-13 9 -23 20 -10 11 -16 20 -13 20 3 0 13 -9 23 -20z m160 -10 c10 -11 14 -20
9 -20 -5 0 -15 9 -22 20 -7 11 -11 20 -9 20 2 0 12 -9 22 -20z m5820 -77 l-78
-78 74 81 c41 45 76 80 78 78 2 -2 -31 -39 -74 -81z m-5885 -35 c0 -10 -16 5
-40 37 -10 15 -7 14 13 -4 15 -14 27 -29 27 -33z m170 -3 c19 -19 32 -35 29
-35 -3 0 -20 16 -39 35 -19 19 -32 35 -29 35 3 0 20 -16 39 -35z m-70 -100
c19 -19 32 -35 29 -35 -3 0 -20 16 -39 35 -19 19 -32 35 -29 35 3 0 20 -16 39
-35z m5627 -29 c-18 -20 -37 -36 -41 -36 -4 0 9 18 30 40 21 22 39 38 41 36 2
-2 -12 -19 -30 -40z m157 -14 c-16 -15 -31 -26 -34 -24 -5 4 47 52 57 52 3 0
-7 -12 -23 -28z m-5550 -21 c-2 -3 -12 3 -22 13 -16 17 -16 18 5 5 12 -7 20
-15 17 -18z m-158 -13 l29 -33 -32 29 c-31 28 -38 36 -30 36 2 0 16 -15 33
-32z m5479 -18 c-3 -5 -12 -10 -18 -10 -7 0 -6 4 3 10 19 12 23 12 15 0z m-25
-23 c0 -1 -16 -17 -35 -36 -19 -18 -35 -30 -35 -26 0 3 15 19 32 36 31 28 38
33 38 26z m-5384 -22 c9 -8 11 -15 6 -15 -5 0 -15 7 -22 15 -7 8 -9 15 -6 15
4 0 14 -7 22 -15z m185 -22 c13 -16 12 -17 -3 -4 -17 13 -22 21 -14 21 2 0 10
-8 17 -17z m-141 -28 c13 -14 21 -25 18 -25 -2 0 -15 11 -28 25 -13 14 -21 25
-18 25 2 0 15 -11 28 -25z m174 9 c3 -8 2 -12 -4 -9 -6 3 -10 10 -10 16 0 14
7 11 14 -7z m4456 6 c-8 -5 -19 -10 -25 -10 -5 0 -3 5 5 10 8 5 20 10 25 10 6
0 3 -5 -5 -10z m625 -30 c-3 -5 -12 -10 -18 -10 -7 0 -6 4 3 10 19 12 23 12
15 0z m-5019 -32 l29 -33 -30 25 c-16 14 -34 28 -39 32 -6 5 -6 8 0 8 6 0 23
-15 40 -32z m4901 -58 c-42 -33 -79 -60 -83 -60 -10 0 140 119 150 120 5 0
-26 -27 -67 -60z m-5041 18 l29 -33 -32 29 c-31 28 -38 36 -30 36 2 0 16 -15
33 -32z m195 -5 c13 -16 12 -17 -3 -4 -17 13 -22 21 -14 21 2 0 10 -8 17 -17z
m39 -34 c0 -6 -4 -7 -10 -4 -5 3 -10 11 -10 16 0 6 5 7 10 4 6 -3 10 -11 10
-16z m4070 6 c-7 -8 -17 -15 -23 -15 -6 0 -2 7 9 15 25 19 30 19 14 0z m-4203
-54 c-6 -2 -13 1 -15 8 -2 6 -9 11 -15 11 -7 0 -18 10 -25 21 -12 18 -8 17 26
-7 23 -16 36 -31 29 -33z m163 24 c14 -19 14 -19 -2 -6 -10 7 -18 18 -18 24 0
6 1 8 3 6 1 -2 9 -13 17 -24z m93 -64 c7 -8 -7 -2 -30 14 -24 15 -43 30 -43
32 0 7 61 -31 73 -46z m4107 45 c0 -2 -7 -7 -16 -10 -8 -3 -12 -2 -9 4 6 10
25 14 25 6z m474 -20 c-10 -8 -21 -12 -24 -10 -5 6 21 24 34 24 6 0 1 -6 -10
-14z m-4799 -6 c3 -6 -1 -7 -9 -4 -18 7 -21 14 -7 14 6 0 13 -4 16 -10z m33
-35 c-3 -3 -9 2 -12 12 -6 14 -5 15 5 6 7 -7 10 -15 7 -18z m4707 0 c-16 -13
-37 -24 -45 -24 -12 0 -12 2 -1 6 7 3 22 14 32 24 11 11 25 19 32 19 6 0 -1
-11 -18 -25z m-3640 -25 c3 -6 -1 -7 -9 -4 -18 7 -21 14 -7 14 6 0 13 -4 16
-10z m-994 -27 c13 -16 12 -17 -3 -4 -17 13 -22 21 -14 21 2 0 10 -8 17 -17z
m4738 -15 c-24 -18 -47 -37 -51 -42 -4 -6 -10 -8 -13 -4 -6 6 83 76 99 77 6 1
-10 -13 -35 -31z m-3682 16 c-3 -3 -12 -4 -19 -1 -8 3 -5 6 6 6 11 1 17 -2 13
-5z m3478 -14 c-10 -11 -23 -20 -29 -20 -6 1 0 10 13 20 30 26 39 26 16 0z
m-4270 -20 c3 -6 -1 -7 -9 -4 -18 7 -21 14 -7 14 6 0 13 -4 16 -10z m4215 -14
c-24 -23 -96 -61 -81 -42 7 9 19 16 25 16 6 0 22 9 36 20 29 23 41 26 20 6z
m-4340 -51 c0 -9 -50 22 -55 33 -3 7 8 4 25 -8 17 -12 30 -23 30 -25z m326
-56 c44 -23 106 -55 139 -72 33 -17 62 -34 65 -38 3 -4 18 -11 33 -14 15 -4
27 -11 27 -16 0 -10 -48 9 -72 29 -9 7 -22 15 -30 16 -7 1 -24 8 -38 16 -59
33 -129 71 -176 95 -28 15 -64 38 -80 51 l-29 25 41 -25 c23 -14 77 -44 120
-67z m4194 81 c0 -5 -18 -19 -40 -30 -50 -26 -52 -18 -2 14 44 29 42 29 42 16z
m-1170 -14 c0 -2 -7 -7 -16 -10 -8 -3 -12 -2 -9 4 6 10 25 14 25 6z m310 -10
c0 -2 -7 -7 -16 -10 -8 -3 -12 -2 -9 4 6 10 25 14 25 6z m580 -11 c0 -2 -13
-11 -30 -20 -38 -19 -40 -11 -2 9 31 17 32 18 32 11z m-2976 -13 c3 -5 -1 -9
-9 -9 -8 0 -12 4 -9 9 3 4 7 8 9 8 2 0 6 -4 9 -8z m-1074 -91 c108 -64 141
-89 70 -52 -80 42 -209 121 -217 134 -3 6 9 1 28 -10 19 -12 72 -44 119 -72z
m3979 66 c-2 -1 -13 -9 -24 -17 -19 -14 -19 -14 -6 3 7 9 18 17 24 17 6 0 8
-1 6 -3z m206 -22 c-16 -13 -46 -32 -65 -42 -19 -10 -37 -21 -40 -24 -9 -10
-73 -39 -77 -35 -2 2 10 10 26 17 17 8 31 17 31 20 0 4 12 12 28 18 28 11 63
32 72 42 6 7 43 28 50 29 3 0 -8 -11 -25 -25z m-3350 -5 c3 -6 -1 -7 -9 -4
-18 7 -21 14 -7 14 6 0 13 -4 16 -10z m2052 4 c-3 -3 -12 -4 -19 -1 -8 3 -5 6
6 6 11 1 17 -2 13 -5z m393 1 c0 -7 -43 -23 -78 -30 -19 -4 40 23 76 34 1 1 2
-1 2 -4z m649 -9 c-2 -2 -15 -9 -29 -15 -24 -11 -24 -11 -6 3 16 13 49 24 35
12z m-1164 -16 c-3 -5 -12 -10 -18 -10 -7 0 -6 4 3 10 19 12 23 12 15 0z
m-1850 -10 c3 -6 -1 -7 -9 -4 -18 7 -21 14 -7 14 6 0 13 -4 16 -10z m452 4
c-3 -3 -12 -4 -19 -1 -8 3 -5 6 6 6 11 1 17 -2 13 -5z m2492 -18 c-10 -9 -129
-66 -129 -61 0 6 111 64 124 65 5 0 7 -2 5 -4z m-1942 -42 c-3 -3 -12 -4 -19
-1 -8 3 -5 6 6 6 11 1 17 -2 13 -5z m280 0 c-2 -3 -17 -7 -33 -10 -17 -2 -24
-1 -17 4 13 8 58 14 50 6z m770 -10 c-3 -3 -12 -4 -19 -1 -8 3 -5 6 6 6 11 1
17 -2 13 -5z m-2764 -58 c7 -1 23 -9 37 -18 14 -9 35 -19 48 -23 12 -3 22 -10
22 -15 0 -8 -80 26 -90 39 -3 3 -11 7 -19 9 -17 4 -71 41 -71 48 0 3 14 -4 30
-16 17 -12 36 -23 43 -24z m3507 39 c0 -2 -13 -11 -30 -20 -16 -9 -30 -12 -30
-7 0 4 12 13 28 19 15 6 28 11 30 12 1 1 2 -1 2 -4z m-3207 -50 c37 -15 66
-30 64 -32 -7 -6 -157 61 -157 70 0 6 5 6 13 0 6 -5 42 -22 80 -38z m764 39
c-3 -3 -12 -4 -19 -1 -8 3 -5 6 6 6 11 1 17 -2 13 -5z m2372 -28 c-8 -8 -203
-86 -196 -79 11 11 191 90 196 86 2 -2 2 -5 0 -7z m261 -1 c0 -5 -49 -33 -95
-53 -40 -18 -21 0 35 32 45 25 60 30 60 21z m-1263 -11 c-3 -3 -12 -4 -19 -1
-8 3 -5 6 6 6 11 1 17 -2 13 -5z m-192 -24 c-3 -5 -12 -10 -18 -10 -7 0 -6 4
3 10 19 12 23 12 15 0z m-728 -6 c-3 -3 -12 -4 -19 -1 -8 3 -5 6 6 6 11 1 17
-2 13 -5z m-1363 -33 c4 -5 -3 -7 -14 -4 -23 6 -26 13 -6 13 8 0 17 -4 20 -9z
m394 -30 c51 -19 91 -35 89 -37 -6 -7 -197 60 -197 69 0 5 3 7 8 5 4 -1 49
-18 100 -37z m3012 34 c0 -4 -145 -75 -153 -74 -1 0 -35 -14 -74 -30 -40 -16
-73 -26 -73 -22 0 5 39 23 88 41 48 17 112 44 142 60 57 29 70 34 70 25z
m-3300 -56 c0 -9 -57 19 -65 32 -4 5 10 2 29 -8 20 -9 36 -20 36 -24z m2957
35 c-3 -3 -12 -4 -19 -1 -8 3 -5 6 6 6 11 1 17 -2 13 -5z m-50 -20 c-3 -3 -12
-4 -19 -1 -8 3 -5 6 6 6 11 1 17 -2 13 -5z m-87 -24 c0 -5 -5 -10 -11 -10 -5
0 -7 5 -4 10 3 6 8 10 11 10 2 0 4 -4 4 -10z m-2380 -20 c20 -6 21 -8 5 -8
-11 0 -29 3 -40 8 -25 11 1 11 35 0z m2330 0 c-8 -5 -26 -9 -40 -9 -23 1 -23
2 5 9 43 11 52 11 35 0z m-2640 -20 c0 -5 -7 -7 -15 -4 -8 4 -15 8 -15 10 0 2
7 4 15 4 8 0 15 -4 15 -10z m228 -80 c56 -18 102 -34 102 -36 0 -3 -9 -3 -19
1 -11 3 -28 8 -38 10 -10 2 -33 8 -51 14 -18 5 -33 10 -35 10 -15 0 -146 53
-163 66 -10 8 8 4 41 -9 33 -14 106 -39 163 -56z m2268 61 c-3 -5 -17 -11 -32
-14 -29 -5 -20 9 11 16 11 3 21 5 23 6 2 0 1 -3 -2 -8z m-2031 -11 c3 -6 -1
-7 -9 -4 -18 7 -21 14 -7 14 6 0 13 -4 16 -10z m2388 -1 c-6 -6 -19 -12 -29
-14 -11 -2 -19 -4 -19 -5 0 -1 -7 -3 -15 -5 -8 -2 -61 -19 -117 -38 -57 -19
-103 -32 -103 -28 0 4 164 61 223 77 4 1 8 2 10 4 1 1 10 3 20 5 11 2 21 6 25
9 3 3 8 6 11 6 3 0 0 -5 -6 -11z m-2238 -34 c17 -8 21 -13 10 -10 -11 2 -36 7
-55 10 -44 8 -52 15 -14 15 16 -1 43 -7 59 -15z m1735 11 c0 -2 -13 -9 -30
-15 -35 -12 -41 -5 -7 9 25 10 37 12 37 6z m-1665 -25 c3 -6 -4 -9 -15 -8 -11
1 -20 5 -20 9 0 11 28 10 35 -1z m1545 0 c0 -5 -14 -11 -30 -13 -33 -5 -29 7
5 15 11 3 21 5 23 6 1 0 2 -3 2 -8z m-1496 -10 c4 -5 -3 -7 -14 -4 -23 6 -26
13 -6 13 8 0 17 -4 20 -9z m132 -21 c22 -8 17 -8 -21 -3 -27 3 -58 7 -67 8
-10 0 -20 4 -24 7 -8 9 78 -1 112 -12z m1264 12 c0 -5 -7 -9 -15 -9 -8 0 -12
4 -9 9 3 4 9 8 15 8 5 0 9 -4 9 -8z m-40 -6 c0 -2 -7 -7 -16 -10 -8 -3 -12 -2
-9 4 6 10 25 14 25 6z m-1674 -38 c3 -4 -13 -2 -35 4 -23 6 -41 14 -41 18 0 8
65 -11 76 -22z m1608 21 c-2 -4 -40 -10 -84 -13 -44 -4 -93 -9 -108 -12 -19
-3 -22 -1 -12 5 8 5 46 11 84 15 39 4 71 8 72 9 5 5 52 1 48 -4z m-975 -15 c8
-7 -64 -2 -89 6 -16 6 -6 7 30 3 30 -3 57 -7 59 -9z m1437 -9 c-11 -8 -25 -15
-30 -15 -6 1 0 7 14 15 32 19 40 18 16 0z m-1216 -4 c0 -8 -67 -7 -75 1 -2 2
13 4 35 5 22 0 40 -2 40 -6z m135 -1 c3 -5 -1 -10 -10 -10 -9 0 -13 5 -10 10
3 6 8 10 10 10 2 0 7 -4 10 -10z m289 2 c3 -5 -1 -9 -9 -9 -8 0 -12 4 -9 9 3
4 7 8 9 8 2 0 6 -4 9 -8z m43 2 c-3 -3 -12 -4 -19 -1 -8 3 -5 6 6 6 11 1 17
-2 13 -5z m-1216 -22 c-7 -2 -18 1 -23 6 -8 8 -4 9 13 5 13 -4 18 -8 10 -11z
m926 12 c-3 -3 -12 -4 -19 -1 -8 3 -5 6 6 6 11 1 17 -2 13 -5z m91 -1 c-10 -2
-26 -2 -35 0 -10 3 -2 5 17 5 19 0 27 -2 18 -5z m49 1 c-3 -3 -12 -4 -19 -1
-8 3 -5 6 6 6 11 1 17 -2 13 -5z m803 -12 c0 -4 -10 -9 -22 -9 -18 -2 -20 0
-8 7 18 12 30 13 30 2z m-90 -22 c-8 -5 -22 -9 -30 -9 -10 0 -8 3 5 9 27 12
43 12 25 0z m-1625 -10 c3 -6 -1 -7 -9 -4 -18 7 -21 14 -7 14 6 0 13 -4 16
-10z m1505 -9 c-8 -5 -31 -11 -50 -14 -35 -6 -35 -6 5 8 46 15 67 18 45 6z
m-1357 -18 c-7 -2 -19 -2 -25 0 -7 3 -2 5 12 5 14 0 19 -2 13 -5z m90 -8 c9 2
17 -1 17 -6 0 -12 -61 -2 -75 12 -7 7 -2 7 15 1 14 -5 33 -8 43 -7z m1081 -3
c2 -4 -7 -8 -22 -9 -24 -2 -24 -1 -7 7 11 5 21 9 22 9 1 1 4 -3 7 -7z m56 4
c0 -2 -9 -6 -20 -9 -11 -3 -18 -1 -14 4 5 9 34 13 34 5z m-1052 -14 c8 -5 -1
-8 -23 -8 -19 1 -35 4 -35 9 0 9 42 9 58 -1z m892 -2 c0 -5 -5 -10 -11 -10 -5
0 -7 5 -4 10 3 6 8 10 11 10 2 0 4 -4 4 -10z m-764 -13 c3 -3 -11 -4 -30 -3
-20 2 -39 6 -44 10 -4 5 10 6 31 3 21 -3 41 -7 43 -10z m48 -6 c4 -5 -3 -7
-14 -4 -23 6 -26 13 -6 13 8 0 17 -4 20 -9z m76 5 c0 -3 -4 -8 -10 -11 -5 -3
-10 -1 -10 4 0 6 5 11 10 11 6 0 10 -2 10 -4z m67 -12 c-3 -3 -12 -4 -19 -1
-8 3 -5 6 6 6 11 1 17 -2 13 -5z m40 0 c-3 -3 -12 -4 -19 -1 -8 3 -5 6 6 6 11
1 17 -2 13 -5z m290 0 c-3 -3 -12 -4 -19 -1 -8 3 -5 6 6 6 11 1 17 -2 13 -5z"/>
</g>
</svg>
